<?xml version="1.0" encoding="UTF-8"?>
<!DOCTYPE svg PUBLIC "-//W3C//DTD SVG 1.1//EN" "http://www.w3.org/Graphics/SVG/1.1/DTD/svg11.dtd">
<!-- Creator: CorelDRAW X7 -->
<svg xmlns="http://www.w3.org/2000/svg" xml:space="preserve" width="21.75mm" height="15.4774mm" version="1.1" style="shape-rendering:geometricPrecision; text-rendering:geometricPrecision; image-rendering:optimizeQuality; fill-rule:evenodd; clip-rule:evenodd"
viewBox="0 0 774 550"
 xmlns:xlink="http://www.w3.org/1999/xlink">
 <g id="Слой_x0020_1">
  <metadata id="CorelCorpID_0Corel-Layer"/>
  <path class="fil0" d="M626 506l101 -318c1,-5 1,-9 -2,-13 -3,-4 -7,-7 -12,-7l-653 0c-4,0 -8,3 -11,7 -3,4 -3,8 -2,13l101 318c2,5 7,9 13,9l452 0c6,0 11,-4 13,-9zm-119 -464l46 69c3,4 4,10 1,14 -2,5 -7,8 -12,8l-311 0c-5,0 -10,-3 -12,-8 -3,-4 -3,-10 0,-14l47 -69c2,-4 7,-6 11,-6l218 0c5,0 9,2 12,6zm100 85l-79 -121c-3,-4 -7,-6 -12,-6l-258 0c-5,0 -10,2 -12,6l-80 121c-3,4 -7,6 -12,6l-140 0c-8,0 -14,6 -14,14l0 19c0,2 0,3 1,5l122 370c2,6 7,9 13,9l501 0c7,0 12,-3 14,-9l122 -370c0,-2 1,-3 1,-5l0 -19c0,-8 -7,-14 -15,-14l-140 0c-5,0 -9,-2 -12,-6zm-60 153l0 116c0,8 -7,14 -14,14l-8 0c-7,0 -14,-6 -14,-14l0 -116c0,-8 7,-14 14,-14l8 0c7,0 14,6 14,14zm-142 0l0 116c0,8 -7,14 -15,14l-7 0c-8,0 -14,-6 -14,-14l0 -116c0,-8 6,-14 14,-14l7 0c8,0 15,6 15,14zm-143 0l0 116c0,8 -6,14 -14,14l-7 0c-8,0 -14,-6 -14,-14l0 -116c0,-8 6,-14 14,-14l7 0c8,0 14,6 14,14z"/>
 </g>
</svg>
