<?xml version="1.0" encoding="UTF-8"?>
<!DOCTYPE svg PUBLIC "-//W3C//DTD SVG 1.1//EN" "http://www.w3.org/Graphics/SVG/1.1/DTD/svg11.dtd">
<!-- Creator: CorelDRAW X7 -->
<svg xmlns="http://www.w3.org/2000/svg" xml:space="preserve" width="16.0841mm" height="18.5552mm" version="1.1" style="shape-rendering:geometricPrecision; text-rendering:geometricPrecision; image-rendering:optimizeQuality; fill-rule:evenodd; clip-rule:evenodd"
viewBox="0 0 500 577"
 xmlns:xlink="http://www.w3.org/1999/xlink">

 <g id="Слой_x0020_1">
  <metadata id="CorelCorpID_0Corel-Layer"/>
  <path class="fil0" d="M250 0c71,165 142,282 213,432l0 0 1 2 1 2 0 0 1 4 1 2c11,23 22,47 33,72 -167,85 -333,81 -500,0l250 -514zm-6 190c13,0 23,11 23,24 0,13 -10,24 -23,24 -14,0 -24,-11 -24,-24 0,-13 10,-24 24,-24zm-57 168c18,0 34,15 34,34 0,18 -16,34 -34,34 -19,0 -34,-16 -34,-34 0,-19 15,-34 34,-34zm122 -64c13,0 24,10 24,23 0,13 -11,24 -24,24 -13,0 -24,-11 -24,-24 0,-13 11,-23 24,-23zm-238 146c120,56 241,58 361,1 -27,-57 -56,-113 -85,-169 -34,-66 -67,-132 -98,-199l-178 367z"/>
 </g>
</svg>
