<?xml version="1.0" encoding="UTF-8"?>
<!DOCTYPE svg PUBLIC "-//W3C//DTD SVG 1.1//EN" "http://www.w3.org/Graphics/SVG/1.1/DTD/svg11.dtd">
<!-- Creator: CorelDRAW X7 -->
<svg xmlns="http://www.w3.org/2000/svg" xml:space="preserve" width="19.3996mm" height="20.6mm" version="1.1" style="shape-rendering:geometricPrecision; text-rendering:geometricPrecision; image-rendering:optimizeQuality; fill-rule:evenodd; clip-rule:evenodd"
viewBox="0 0 679 721"
 xmlns:xlink="http://www.w3.org/1999/xlink">

 <g id="Слой_x0020_1">
  <metadata id="CorelCorpID_0Corel-Layer"/>
  <path class="fil0" d="M0 88l168 0c0,5 -1,11 -1,17 0,6 1,12 1,18l-168 0 0 -35zm0 511l41 0c9,-50 52,-88 104,-88 52,0 95,38 104,88l430 0 0 35 -430 0c-9,50 -52,87 -104,87 -52,0 -95,-37 -104,-87l-41 0 0 -35zm40 15c0,1 0,2 0,2 0,0 0,-1 0,-2zm0 2c0,1 0,2 0,3 0,-1 0,-2 0,-3zm210 -2c0,1 0,2 0,2 0,0 0,-1 0,-2zm0 2c0,1 0,2 0,3 0,-1 0,-2 0,-3zm-105 -70c39,0 70,32 70,70 0,39 -31,70 -70,70 -39,0 -70,-31 -70,-70 0,-38 31,-70 70,-70zm-145 -203l420 0c9,-49 52,-87 104,-87 58,0 105,47 105,105 0,58 -47,105 -105,105 -52,0 -95,-38 -104,-88l-420 0 0 -35zm524 -52c39,0 70,31 70,70 0,38 -31,70 -70,70 -39,0 -70,-32 -70,-70 0,-39 31,-70 70,-70zm104 52l51 0 0 35 -51 0c1,-5 1,-11 1,-17 0,-6 0,-12 -1,-18zm-356 -343c52,0 95,38 104,88l303 0 0 35 -303 0c-9,49 -52,87 -104,87 -58,0 -105,-47 -105,-105 0,-58 47,-105 105,-105zm0 35c39,0 70,31 70,70 0,39 -31,70 -70,70 -39,0 -70,-31 -70,-70 0,-39 31,-70 70,-70z"/>
 </g>
</svg>
