<?xml version="1.0" encoding="UTF-8"?>
<!DOCTYPE svg PUBLIC "-//W3C//DTD SVG 1.1//EN" "http://www.w3.org/Graphics/SVG/1.1/DTD/svg11.dtd">
<!-- Creator: CorelDRAW X7 -->
<svg xmlns="http://www.w3.org/2000/svg" xml:space="preserve" width="14.408mm" height="20.9146mm" version="1.1" style="shape-rendering:geometricPrecision; text-rendering:geometricPrecision; image-rendering:optimizeQuality; fill-rule:evenodd; clip-rule:evenodd"
viewBox="0 0 125 182"
 xmlns:xlink="http://www.w3.org/1999/xlink">
 <g id="Слой_x0020_1">
  <metadata id="CorelCorpID_0Corel-Layer"/>
  <path id="Facebook_Places" class="fil0" d="M122 45c0,-2 -2,-5 -3,-7 -11,-28 -37,-38 -57,-38 -28,0 -58,18 -62,56l0 8c0,0 0,3 0,5 3,18 17,37 27,55 12,20 24,39 36,58 7,-13 14,-25 21,-37 2,-4 4,-8 6,-11 2,-2 4,-4 5,-7 12,-21 30,-42 30,-63l0 -8c0,-2 -3,-10 -3,-11zm-60 39c-8,0 -17,-4 -21,-15 -1,-2 -1,-5 -1,-6l0 -5c0,-14 12,-20 23,-20 13,0 23,10 23,23 0,13 -11,23 -24,23z"/>
 </g>
</svg>
