<?xml version="1.0" encoding="UTF-8"?>
<!DOCTYPE svg PUBLIC "-//W3C//DTD SVG 1.1//EN" "http://www.w3.org/Graphics/SVG/1.1/DTD/svg11.dtd">
<!-- Creator: CorelDRAW X7 -->
<svg xmlns="http://www.w3.org/2000/svg" xml:space="preserve" width="18.7448mm" height="18.7182mm" version="1.1" style="shape-rendering:geometricPrecision; text-rendering:geometricPrecision; image-rendering:optimizeQuality; fill-rule:evenodd; clip-rule:evenodd"
viewBox="0 0 207 207"
 xmlns:xlink="http://www.w3.org/1999/xlink">

 <g id="Слой_x0020_1">
  <metadata id="CorelCorpID_0Corel-Layer"/>
  <path class="fil0" d="M109 0c51,3 92,42 97,92l-11 0c-5,-44 -41,-78 -86,-81l0 -11zm37 128c1,2 0,3 -1,4l-12 12c0,1 -1,1 -2,1 -1,1 -2,1 -3,1 0,0 0,0 0,0 0,0 -1,0 -1,0 -1,0 -3,0 -6,0 -3,-1 -6,-2 -9,-3 -4,-2 -8,-4 -13,-7 -5,-3 -10,-7 -15,-13 -4,-4 -8,-8 -11,-12 -3,-4 -5,-7 -7,-10 -1,-4 -2,-7 -3,-9 -1,-3 -2,-5 -2,-7 0,-2 0,-4 0,-5 0,-1 0,-1 0,-1 0,-1 0,-2 0,-3 1,-1 1,-2 2,-2l12 -12c1,-1 2,-2 3,-2 1,0 2,1 2,1 1,1 1,1 2,2l9 18c1,1 1,2 1,3 0,2 -1,3 -2,3l-4 5c0,0 0,0 0,0 -1,1 -1,1 -1,1 1,1 1,3 2,4 1,2 2,4 3,6 2,2 4,4 7,7 3,3 5,5 7,7 2,1 4,2 6,3 1,1 2,1 3,1l1 1c0,0 0,-1 1,-1 0,0 0,0 0,0l5 -5c1,-1 3,-2 4,-2 1,0 2,1 3,1l0 0 17 10c1,1 2,2 2,3zm61 -25l0 0c0,56 -43,101 -98,104l0 -11c49,-3 87,-43 87,-93l0 0 11 0zm-109 104c-55,-3 -98,-48 -98,-104l0 0 11 0 0 0c0,50 39,90 87,93l0 11zm-97 -115c5,-50 46,-89 97,-92l0 11c-45,3 -81,37 -86,81l-11 0z"/>
 </g>
</svg>
