<?xml version="1.0" encoding="UTF-8"?>
<!DOCTYPE svg PUBLIC "-//W3C//DTD SVG 1.1//EN" "http://www.w3.org/Graphics/SVG/1.1/DTD/svg11.dtd">
<!-- Creator: CorelDRAW X7 -->
<svg xmlns="http://www.w3.org/2000/svg" xml:space="preserve" width="19.191mm" height="19.191mm" version="1.1" style="shape-rendering:geometricPrecision; text-rendering:geometricPrecision; image-rendering:optimizeQuality; fill-rule:evenodd; clip-rule:evenodd"
viewBox="0 0 337 337"
 xmlns:xlink="http://www.w3.org/1999/xlink">

 <g id="Слой_x0020_1">
  <metadata id="CorelCorpID_0Corel-Layer"/>
  <path class="fil0" d="M70 162l60 -60c4,-4 10,-4 14,0 3,4 3,9 0,13l-44 44 160 0c5,0 9,4 9,10 0,5 -4,9 -9,9l-160 0 44 44c3,4 3,10 0,13 -2,2 -5,3 -7,3 -2,0 -5,-1 -7,-3l-60 -60c-3,-3 -3,-9 0,-13zm99 -162c93,0 168,75 168,169 0,93 -75,168 -168,168 -94,0 -169,-75 -169,-168 0,-94 75,-169 169,-169zm0 18c83,0 151,67 151,151 0,83 -68,151 -151,151 -84,0 -151,-68 -151,-151 0,-84 67,-151 151,-151z"/>
 </g>
</svg>
