<svg xmlns="http://www.w3.org/2000/svg" xmlns:xlink="http://www.w3.org/1999/xlink" width="512" height="6480" viewBox="0 0 512 6480"><svg width="29.883" height="54.421" viewBox="0 0 68 124" shape-rendering="geometricPrecision" text-rendering="geometricPrecision" image-rendering="optimizeQuality" fill-rule="evenodd" clip-rule="evenodd" id="arrow-custom" y="0"><path class="fil0" d="M6 0l56 56 6 6-6 6-56 56-6-6 56-56L0 6z"></path></svg><svg viewBox="0 0 129 129" width="129" height="129" id="arrow-down" y="55"><path d="M121.3 34.6c-1.6-1.6-4.2-1.6-5.8 0l-51 51.1-51.1-51.1c-1.6-1.6-4.2-1.6-5.8 0-1.6 1.6-1.6 4.2 0 5.8l53.9 53.9c.8.8 1.8 1.2 2.9 1.2 1 0 2.1-.4 2.9-1.2l53.9-53.9c1.7-1.6 1.7-4.2.1-5.8z"></path></svg><svg viewBox="0 0 477.175 477.175" width="477.175" height="477.175" id="arrow-left" y="184"><path d="M145.188 238.575l215.5-215.5c5.3-5.3 5.3-13.8 0-19.1s-13.8-5.3-19.1 0l-225.1 225.1c-5.3 5.3-5.3 13.8 0 19.1l225.1 225c2.6 2.6 6.1 4 9.5 4s6.9-1.3 9.5-4c5.3-5.3 5.3-13.8 0-19.1l-215.4-215.5z"></path></svg><svg viewBox="0 0 477.175 477.175" width="477.175" height="477.175" id="arrow-right" y="662"><path d="M360.731 229.075l-225.1-225.1c-5.3-5.3-13.8-5.3-19.1 0s-5.3 13.8 0 19.1l215.5 215.5-215.5 215.5c-5.3 5.3-5.3 13.8 0 19.1 2.6 2.6 6.1 4 9.5 4 3.4 0 6.9-1.3 9.5-4l225.1-225.1c5.3-5.2 5.3-13.8.1-19z"></path></svg><svg width="64" height="64" viewBox="0 0 64 64" id="arrow-up" y="1140"><path d="M3.352 48.296l28.56-28.328 28.58 28.347c.397.394.917.59 1.436.59.52 0 1.04-.196 1.436-.59a2.003 2.003 0 0 0 0-2.849l-29.98-29.735c-.2-.2-.494-.375-.757-.475a2.052 2.052 0 0 0-2.166.456L.479 45.447a2.003 2.003 0 0 0 0 2.849 2.045 2.045 0 0 0 2.873 0z"></path></svg><svg width="82.205" height="58.497" viewBox="0 0 774 550" shape-rendering="geometricPrecision" text-rendering="geometricPrecision" image-rendering="optimizeQuality" fill-rule="evenodd" clip-rule="evenodd" id="cart" y="1204"><path class="fil0" d="M626 506l101-318c1-5 1-9-2-13s-7-7-12-7H60c-4 0-8 3-11 7s-3 8-2 13l101 318c2 5 7 9 13 9h452c6 0 11-4 13-9zM507 42l46 69c3 4 4 10 1 14-2 5-7 8-12 8H231c-5 0-10-3-12-8-3-4-3-10 0-14l47-69c2-4 7-6 11-6h218c5 0 9 2 12 6zm100 85L528 6c-3-4-7-6-12-6H258c-5 0-10 2-12 6l-80 121c-3 4-7 6-12 6H14c-8 0-14 6-14 14v19c0 2 0 3 1 5l122 370c2 6 7 9 13 9h501c7 0 12-3 14-9l122-370c0-2 1-3 1-5v-19c0-8-7-14-15-14H619c-5 0-9-2-12-6zm-60 153v116c0 8-7 14-14 14h-8c-7 0-14-6-14-14V280c0-8 7-14 14-14h8c7 0 14 6 14 14zm-142 0v116c0 8-7 14-15 14h-7c-8 0-14-6-14-14V280c0-8 6-14 14-14h7c8 0 15 6 15 14zm-143 0v116c0 8-6 14-14 14h-7c-8 0-14-6-14-14V280c0-8 6-14 14-14h7c8 0 14 6 14 14z"></path></svg><svg viewBox="0 0 26 26" width="26" height="26" id="checked" y="1263"><path d="M.3 14c-.2-.2-.3-.5-.3-.7s.1-.5.3-.7l1.4-1.4c.4-.4 1-.4 1.4 0l.1.1 5.5 5.9c.2.2.5.2.7 0L22.8 3.3h.1c.4-.4 1-.4 1.4 0l1.4 1.4c.4.4.4 1 0 1.4l-16 16.6c-.2.2-.4.3-.7.3-.3 0-.5-.1-.7-.3L.5 14.3.3 14z"></path></svg><svg viewBox="0 0 512 512" width="512" height="512" id="cheese" y="1289"><path d="M409.834 131.486c-4.483-4.217-11.533-4.003-15.751.48-4.216 4.481-4.002 11.533.48 15.751 11.819 11.12 22.128 22.765 30.64 34.609 3.499 4.865 6.621 9.675 9.283 14.296a11.138 11.138 0 0 0 15.217 4.093c5.332-3.072 7.165-9.884 4.093-15.217-3.034-5.266-6.566-10.709-10.497-16.179-9.344-13.004-20.605-25.733-33.465-37.833zm-30.335-25.101l-.811-.587c-4.987-3.601-11.953-2.477-15.556 2.512-3.602 4.988-2.478 11.955 2.511 15.556l.761.552a11.088 11.088 0 0 0 6.538 2.127c3.446 0 6.845-1.593 9.025-4.596 3.617-4.98 2.511-11.948-2.468-15.564zm-207.956 153.52c-24.165 0-43.827 19.661-43.827 43.826 0 24.166 19.662 43.826 43.827 43.826 24.166 0 43.826-19.661 43.826-43.826s-19.66-43.826-43.826-43.826zm0 65.369c-11.879 0-21.543-9.664-21.543-21.541 0-11.879 9.664-21.542 21.543-21.542 11.878 0 21.542 9.664 21.542 21.542-.001 11.877-9.664 21.541-21.542 21.541zm250.68-74.468c-24.165 0-43.827 19.661-43.827 43.826s19.661 43.826 43.827 43.826c24.165 0 43.826-19.661 43.826-43.826s-19.661-43.826-43.826-43.826zm0 65.368c-11.879 0-21.543-9.664-21.543-21.541 0-11.878 9.663-21.542 21.543-21.542 11.878 0 21.542 9.664 21.542 21.542-.001 11.878-9.664 21.541-21.542 21.541z"></path><path d="M479.492 143.307c-24.092-33.522-58.809-65.131-97.756-89.006a11.14 11.14 0 0 0-10.572-.581L6.393 225.549a11.136 11.136 0 0 0-6.385 10.072l-.008.008v84.116c0 5.308 3.744 9.879 8.948 10.924 8.968 1.802 15.479 9.763 15.479 18.932s-6.51 17.131-15.479 18.932A11.143 11.143 0 0 0 0 379.458V448.2c0 6.154 4.99 11.142 11.142 11.142h488.915c6.153 0 11.142-4.988 11.142-11.142V236.468c4.023-26.037-7.2-59.061-31.707-93.161zM22.285 437.058v-49.564c14.571-6.624 24.427-21.348 24.427-37.892s-9.857-31.27-24.427-37.893v-64.938h229.886c7.66 15.574 23.688 26.319 42.183 26.319s34.522-10.747 42.181-26.319h152.379v190.286H22.285zm247.37-210.951c0-13.619 11.08-24.699 24.699-24.699s24.698 11.08 24.698 24.699-11.079 24.699-24.698 24.699-24.699-11.08-24.699-24.699zm71.641-1.621c-.859-25.157-21.579-45.363-46.942-45.363s-46.084 20.206-46.943 45.363H60.943L375.159 76.471c65.578 41.845 114.077 105.069 114.613 148.015H341.296z"></path><path d="M291.664 300.766c-31.486 0-57.101 25.616-57.101 57.102s25.615 57.102 57.101 57.102 57.102-25.616 57.102-57.102c0-31.486-25.616-57.102-57.102-57.102zm0 91.919c-19.197 0-34.816-15.619-34.816-34.818s15.619-34.818 34.816-34.818c19.198 0 34.818 15.619 34.818 34.818s-15.62 34.818-34.818 34.818zM99.549 356.286c-18.432 0-33.427 14.995-33.427 33.427s14.995 33.427 33.427 33.427 33.427-14.995 33.427-33.427-14.995-33.427-33.427-33.427zm0 44.569c-6.144 0-11.142-4.998-11.142-11.142 0-6.144 4.998-11.142 11.142-11.142 6.144 0 11.142 4.998 11.142 11.142 0 6.144-4.999 11.142-11.142 11.142zm316.436-38.411c-18.432 0-33.427 14.995-33.427 33.427s14.995 33.427 33.427 33.427c18.432 0 33.427-14.995 33.427-33.427s-14.995-33.427-33.427-33.427zm0 44.57c-6.144 0-11.142-4.998-11.142-11.142 0-6.144 4.998-11.142 11.142-11.142 6.144 0 11.142 4.998 11.142 11.142.001 6.143-4.998 11.142-11.142 11.142z"></path></svg><svg width="54.422" height="54.422" viewBox="0 0 139 139" shape-rendering="geometricPrecision" text-rendering="geometricPrecision" image-rendering="optimizeQuality" fill-rule="evenodd" clip-rule="evenodd" id="close" y="1801"><path class="fil0" d="M7 0l63 63 62-63 7 7-63 63 63 62-7 7-62-63-63 63-7-7 63-62L0 7z"></path></svg><svg viewBox="0 0 512 512" width="512" height="512" id="credit-card" y="1856"><path d="M469.256 175.503h-52.1v-73.542c0-23.569-19.175-42.744-42.744-42.744H42.744C19.175 59.218 0 78.393 0 101.962v191.786c0 23.569 19.175 42.744 42.744 42.744h52.102v73.546c0 23.569 19.175 42.744 42.744 42.744h331.666c23.569 0 42.744-19.175 42.744-42.744V218.247c0-23.569-19.175-42.744-42.744-42.744zM24.425 101.962c0-10.101 8.218-18.319 18.319-18.319h331.668c10.101 0 18.319 8.218 18.319 18.319v17.051H24.425v-17.051zm70.421 116.285v93.819H42.744c-10.101 0-18.319-8.218-18.319-18.319v-93.743h74.52a42.471 42.471 0 0 0-4.099 18.243zm-70.421-42.668v-32.14h368.306v32.064H137.59c-.826 0-1.644.029-2.458.076H24.425zm444.831 252.778H137.59c-10.101 0-18.319-8.218-18.319-18.319V218.247c0-9.597 7.422-17.479 16.824-18.243H404.94c.451 0 .894-.028 1.331-.076h62.984c10.101 0 18.319 8.218 18.319 18.319v191.791h.001c0 10.101-8.218 18.319-18.319 18.319z"></path><path d="M340.211 255.272c-13.892 0-26.666 4.847-36.745 12.924-10.333-8.324-23.209-12.931-36.829-12.931-32.465 0-58.877 26.412-58.877 58.877s26.412 58.877 58.877 58.877c13.621 0 26.496-4.607 36.829-12.929 10.079 8.077 22.853 12.925 36.745 12.925 32.462 0 58.871-26.41 58.871-58.872s-26.409-58.871-58.871-58.871zm-52.258 85.929c-6.009 4.758-13.451 7.392-21.317 7.392-18.997.001-34.452-15.454-34.452-34.45 0-18.997 15.455-34.452 34.452-34.452 7.866 0 15.307 2.635 21.317 7.392a58.48 58.48 0 0 0-6.613 27.058 58.501 58.501 0 0 0 6.613 27.06zm52.258 7.388c-18.993 0-34.445-15.453-34.445-34.447 0-18.993 15.453-34.445 34.445-34.445 18.993 0 34.445 15.453 34.445 34.445 0 18.995-15.452 34.447-34.445 34.447z"></path></svg><svg width="60.79" height="70.13" viewBox="0 0 500 577" shape-rendering="geometricPrecision" text-rendering="geometricPrecision" image-rendering="optimizeQuality" fill-rule="evenodd" clip-rule="evenodd" id="fat" y="2368"><path class="fil0" d="M250 0c71 165 142 282 213 432l1 2 1 2 1 4 1 2c11 23 22 47 33 72-167 85-333 81-500 0L250 0zm-6 190c13 0 23 11 23 24s-10 24-23 24c-14 0-24-11-24-24s10-24 24-24zm-57 168c18 0 34 15 34 34 0 18-16 34-34 34-19 0-34-16-34-34 0-19 15-34 34-34zm122-64c13 0 24 10 24 23s-11 24-24 24-24-11-24-24 11-23 24-23zM71 440c120 56 241 58 361 1-27-57-56-113-85-169-34-66-67-132-98-199L71 440z"></path></svg><svg width="73.321" height="20.6" viewBox="0 0 679 721" shape-rendering="geometricPrecision" text-rendering="geometricPrecision" image-rendering="optimizeQuality" fill-rule="evenodd" clip-rule="evenodd" id="filter" y="2439"><path class="fil0" d="M0 88h168c0 5-1 11-1 17s1 12 1 18H0V88zm0 511h41c9-50 52-88 104-88s95 38 104 88h430v35H249c-9 50-52 87-104 87s-95-37-104-87H0v-35zm40 15zm0 2zm210-2zm0 2zm-105-70c39 0 70 32 70 70 0 39-31 70-70 70s-70-31-70-70c0-38 31-70 70-70zM0 343h420c9-49 52-87 104-87 58 0 105 47 105 105s-47 105-105 105c-52 0-95-38-104-88H0v-35zm524-52c39 0 70 31 70 70 0 38-31 70-70 70s-70-32-70-70c0-39 31-70 70-70zm104 52h51v35h-51c1-5 1-11 1-17s0-12-1-18zM272 0c52 0 95 38 104 88h303v35H376c-9 49-52 87-104 87-58 0-105-47-105-105S214 0 272 0zm0 35c39 0 70 31 70 70s-31 70-70 70-70-31-70-70 31-70 70-70z"></path></svg><svg viewBox="0 0 511.999 511.999" width="511.999" height="511.999" id="fish" y="2460"><path d="M477.159 209.634c-22.373-19.971-52.396-37.151-84.553-48.389l-.062-.023-.104-.038a278.756 278.756 0 0 0-45.385-11.658c-9.029-10.947-38.976-42.731-90.831-54.779-8.616-2.004-17.536.011-24.482 5.525-6.989 5.55-10.997 13.847-10.997 22.765v41.181c-48.704 21.435-87.315 56.393-108.074 77.857-3.091-15.604-9.946-35.331-25.076-50.461-28.811-28.81-75.188-27.613-77.136-27.547a10.801 10.801 0 0 0-10.438 10.44c-.066 1.959-1.25 48.315 27.558 77.123 7.147 7.147 15.338 12.389 23.679 16.243-8.341 3.935-16.534 9.23-23.68 16.376C-1.229 313.068-.044 359.423.021 361.382a10.802 10.802 0 0 0 10.438 10.441c.185.006.768.023 1.697.023 8.884 0 49.358-1.49 75.439-27.581 15.257-15.257 22.098-35.435 25.148-51.334 15.226 15.715 40.028 38.66 71.384 58.28v37.75c0 9.261 4.259 17.745 11.685 23.275 5.108 3.803 11.122 5.772 17.265 5.772 2.802 0 5.631-.409 8.412-1.241 26.134-7.803 45.906-22.044 55.071-29.547 8.83 1.294 17.628 1.958 26.221 1.958 29.499 0 59.016-4.962 87.729-14.746l.057-.019c66.961-22.822 121.429-70.785 121.429-106.936.006-17.246-12.368-37.787-34.837-57.843zM42.858 236.355c-14.78-14.78-19.297-36.961-20.664-50.15 13.164 1.337 35.267 5.824 50.128 20.685 14.767 14.766 19.287 36.531 20.66 49.454-12.976-1.085-35.303-5.168-50.124-19.989zm29.463 92.635c-14.767 14.772-36.927 19.292-50.123 20.661 1.373-13.201 5.896-35.357 20.66-50.128 14.828-14.828 37.109-19.32 50.151-20.668-1.336 13.16-5.822 35.269-20.688 50.135zM242.35 123.036c0-2.289 1.03-4.42 2.828-5.847 1.03-.819 3.202-2.088 6.155-1.401 27.276 6.338 47.721 19.118 61.262 30.172a259.66 259.66 0 0 0-9.81-.187c-19.714 0-39.981 3.408-60.435 10.135v-32.872zm-27.042 273.031a7.39 7.39 0 0 1-6.589-1.159c-1.115-.83-2.986-2.706-2.986-5.947v-25.423c14.267 7.367 28.51 13.167 42.625 17.377-8.665 5.431-19.918 11.231-33.05 15.152zm87.478-28.494c-9 0-18.284-.822-27.583-2.441-24.301-4.253-49.44-14.088-74.718-29.237-39.823-23.869-69.808-54.927-81.877-68.423 15.37-17.194 59.812-62.867 116.99-86.085.069-.028.139-.053.207-.082 22.825-9.241 45.359-13.929 66.98-13.929 12.163 0 24.524.943 36.744 2.805a254.073 254.073 0 0 1 27.879 5.878c-22.668 24.062-37.057 59.506-37.057 93.834 0 31.343 13.892 65.168 35.752 89.347-20.896 5.527-42.121 8.333-63.317 8.333zm86.496-15.624c-22.513-20.292-37.328-52.514-37.328-82.054 0-32.312 15.771-66.911 38.876-86.318 61.838 23.127 99.569 63.92 99.569 83.897 0 20.316-38.313 61.461-101.117 84.475z"></path><path d="M429.154 254.253c-5.965 0-10.802 4.837-10.802 10.802v4.839c0 5.965 4.837 10.802 10.802 10.802s10.802-4.837 10.802-10.802v-4.839c-.001-5.965-4.838-10.802-10.802-10.802zm-111.856-59.388c-4.326-4.109-11.162-3.931-15.27.394a77.393 77.393 0 0 0-3.04 3.399c-3.844 4.563-3.262 11.377 1.302 15.22a10.752 10.752 0 0 0 6.954 2.542c3.075 0 6.13-1.307 8.265-3.843a55.887 55.887 0 0 1 2.183-2.442c4.109-4.326 3.932-11.162-.394-15.27zm-1.246 132.151c-12.007-13.824-18.893-34.793-18.893-57.531 0-12.73 2.228-25.254 6.446-36.22 2.141-5.568-.637-11.817-6.204-13.959-5.569-2.142-11.818.636-13.96 6.204-5.158 13.414-7.885 28.62-7.885 43.973 0 27.868 8.815 54.001 24.186 71.698a10.775 10.775 0 0 0 8.159 3.719c2.511 0 5.034-.871 7.079-2.646 4.503-3.913 4.984-10.735 1.072-15.238z"></path></svg><svg viewBox="0 0 59 59" width="59" height="59" id="garbage" y="2972"><path d="M29.5 51a1 1 0 0 0 1-1V17a1 1 0 1 0-2 0v33a1 1 0 0 0 1 1zm-10 0a1 1 0 0 0 1-1V17a1 1 0 1 0-2 0v33a1 1 0 0 0 1 1zm20 0a1 1 0 0 0 1-1V17a1 1 0 1 0-2 0v33a1 1 0 0 0 1 1z"></path><path d="M52.5 6H38.456c-.11-1.25-.495-3.358-1.813-4.711C35.809.434 34.751 0 33.499 0H23.5c-1.252 0-2.31.434-3.144 1.289C19.038 2.642 18.653 4.75 18.543 6H6.5a1 1 0 1 0 0 2h2.041l1.915 46.021C10.493 55.743 11.565 59 15.364 59h28.272c3.799 0 4.871-3.257 4.907-4.958L50.459 8H52.5a1 1 0 1 0 0-2zM21.792 2.681C22.24 2.223 22.799 2 23.5 2h9.999c.701 0 1.26.223 1.708.681.805.823 1.128 2.271 1.24 3.319H20.553c.112-1.048.435-2.496 1.239-3.319zm24.752 51.298C46.538 54.288 46.4 57 43.636 57H15.364c-2.734 0-2.898-2.717-2.909-3.042L10.542 8h37.915l-1.913 45.979z"></path></svg><svg viewBox="0 0 486.196 486.196" width="486.196" height="486.196" id="house" y="3031"><path d="M481.708 220.456l-228.8-204.6c-.4-.4-.8-.7-1.3-1-5-4.8-13-5-18.3-.3l-228.8 204.6c-5.6 5-6 13.5-1.1 19.1 2.7 3 6.4 4.5 10.1 4.5 3.2 0 6.4-1.1 9-3.4l41.2-36.9v238.6c0 18.7 15.2 34 34 34h72.2c17.6 0 31.9-14.3 31.9-31.9v-121.3c0-2.7 2.2-4.9 4.9-4.9h72.9c2.7 0 4.9 2.2 4.9 4.9v121.3c0 17.6 14.3 31.9 31.9 31.9h72.2c19 0 34-18.7 34-42.6v-228.7l41.2 36.9c2.6 2.3 5.8 3.4 9 3.4 3.7 0 7.4-1.5 10.1-4.5 4.8-5.6 4.3-14.1-1.2-19.1zm-86.2 66.7v145.1c0 9.7-4.8 15.6-7 15.6h-72.2c-2.7 0-4.9-2.2-4.9-4.9v-121.1c0-17.6-14.3-31.9-31.9-31.9h-72.9c-17.6 0-31.9 14.3-31.9 31.9v121.3c0 2.7-2.2 4.9-4.9 4.9h-72.2c-3.8 0-7-3.1-7-7v-262.8l151.8-135.6 153.1 136.9v107.6z"></path></svg><svg viewBox="0 0 451 451" width="451" height="451" id="magnifying-glass" y="3518"><path d="M447.05 428l-109.6-109.6c29.4-33.8 47.2-77.9 47.2-126.1C384.65 86.2 298.35 0 192.35 0 86.25 0 .05 86.3.05 192.3s86.3 192.3 192.3 192.3c48.2 0 92.3-17.8 126.1-47.2L428.05 447c2.6 2.6 6.1 4 9.5 4s6.9-1.3 9.5-4c5.2-5.2 5.2-13.8 0-19zM26.95 192.3c0-91.2 74.2-165.3 165.3-165.3 91.2 0 165.3 74.2 165.3 165.3s-74.1 165.4-165.3 165.4c-91.1 0-165.3-74.2-165.3-165.4z"></path></svg><svg viewBox="0 0 483.3 483.3" width="483.3" height="483.3" id="mail" y="3969"><path d="M424.3 57.75H59.1c-32.6 0-59.1 26.5-59.1 59.1v249.6c0 32.6 26.5 59.1 59.1 59.1h365.1c32.6 0 59.1-26.5 59.1-59.1v-249.5c.1-32.6-26.4-59.2-59-59.2zm32.1 308.7c0 17.7-14.4 32.1-32.1 32.1H59.1c-17.7 0-32.1-14.4-32.1-32.1v-249.5c0-17.7 14.4-32.1 32.1-32.1h365.1c17.7 0 32.1 14.4 32.1 32.1v249.5h.1z"></path><path d="M304.8 238.55l118.2-106c5.5-5 6-13.5 1-19.1-5-5.5-13.5-6-19.1-1l-163 146.3-31.8-28.4c-.1-.1-.2-.2-.2-.3-.7-.7-1.4-1.3-2.2-1.9L78.3 112.35c-5.6-5-14.1-4.5-19.1 1.1-5 5.6-4.5 14.1 1.1 19.1l119.6 106.9-119.1 111.5c-5.4 5.1-5.7 13.6-.6 19.1 2.7 2.8 6.3 4.3 9.9 4.3 3.3 0 6.6-1.2 9.2-3.6l120.9-113.1 32.8 29.3c2.6 2.3 5.8 3.4 9 3.4s6.5-1.2 9-3.5l33.7-30.2 120.2 114.2c2.6 2.5 6 3.7 9.3 3.7 3.6 0 7.1-1.4 9.8-4.2 5.1-5.4 4.9-14-.5-19.1l-118.7-112.7z"></path></svg><svg width="54.455" height="79.047" viewBox="0 0 125 182" shape-rendering="geometricPrecision" text-rendering="geometricPrecision" image-rendering="optimizeQuality" fill-rule="evenodd" clip-rule="evenodd" id="map" y="4453"><path class="fil0" d="M122 45c0-2-2-5-3-7C108 10 82 0 62 0 34 0 4 18 0 56v13c3 18 17 37 27 55 12 20 24 39 36 58 7-13 14-25 21-37 2-4 4-8 6-11 2-2 4-4 5-7 12-21 30-42 30-63v-8c0-2-3-10-3-11zM62 84c-8 0-17-4-21-15-1-2-1-5-1-6v-5c0-14 12-20 23-20 13 0 23 10 23 23S75 84 62 84z"></path></svg><svg width="73.185" height="13" viewBox="0 0 1434 963" shape-rendering="geometricPrecision" text-rendering="geometricPrecision" image-rendering="optimizeQuality" fill-rule="evenodd" clip-rule="evenodd" id="menu" y="4533"><path class="fil0" d="M0 0h1434v74H0V0zm0 889h1434v74H0v-74zm0-445h1434v74H0v-74z"></path></svg><svg viewBox="0 0 42 42" width="42" height="42" id="minus" y="4546"><path d="M0 19h42v4H0z"></path></svg><svg viewBox="0 0 511.999 511.999" width="511.999" height="511.999" id="mushrooms" y="4588"><path d="M364.437 73.419c-36.141-28.503-83.254-44.85-129.257-44.85a8.571 8.571 0 0 0 0 17.141c42.224 0 85.468 15.005 118.643 41.168 26.634 21.003 44.528 48.395 44.528 68.159a8.571 8.571 0 1 0 17.141 0c0-25.509-19.564-56.783-51.055-81.618z"></path><path d="M442.036 209.305a164.413 164.413 0 0 0-14.144-9.99c10.736-12.617 16.167-27.465 16.167-44.28 0-34.569-23.153-73.467-61.933-104.05C340.437 18.107 288.249 0 235.179 0c-53.07 0-105.258 18.107-146.948 50.986-38.78 30.583-61.933 69.481-61.933 104.05 0 32.306 19.559 56.796 58.136 72.791 19.576 8.118 44.098 14.007 73.261 17.626L146.256 384.36a91.376 91.376 0 0 0-.552 9.965c0 49.255 40.139 89.328 89.476 89.328 15.853 0 31.014-4.065 44.469-11.818 2.752 6.802 6.652 13.159 11.64 18.736A64.344 64.344 0 0 0 339.198 512a64.342 64.342 0 0 0 47.909-21.429 64.347 64.347 0 0 0 15.977-49.869l-7.661-93.069c17.157-2.274 31.974-5.71 44.301-10.304 38.001-14.162 45.977-37.334 45.977-54.28-.002-24.616-16.323-52.184-43.665-73.744zm-351.038 2.689c-32.001-13.271-47.558-31.902-47.558-56.959 0-28.926 21.231-63.638 55.406-90.591C137.528 33.94 185.944 17.14 235.18 17.14c49.236 0 97.654 16.799 136.334 47.304 34.176 26.953 55.406 61.664 55.406 90.591 0 13.867-4.716 25.598-14.371 35.708-22.714-11.16-47.886-17.118-73.351-17.118-37.14 0-73.663 12.672-102.839 35.681-9.025 7.117-16.841 14.891-23.273 22.994-52.114-1.491-93.175-8.317-122.088-20.306zm184.313 228.708a64.117 64.117 0 0 0-.033 13.674c-11.858 7.945-25.618 12.135-40.099 12.135-39.886 0-72.335-32.383-72.335-72.187 0-2.69.155-5.447.461-8.192.009-.081.017-.163.024-.246l11.415-138.625a604.89 604.89 0 0 0 27.281 1.792c-6.055 11.389-9.329 22.987-9.329 33.996 0 30.702 25.002 46.464 45.977 54.28 12.327 4.594 27.143 8.03 44.3 10.304l-7.662 93.069zm99.019 38.442c-8.93 9.986-21.736 15.714-35.132 15.714s-26.202-5.727-35.132-15.714a47.19 47.19 0 0 1-11.705-36.664c.009-.083.018-.167.024-.251l7.638-92.79c12.102.994 25.156 1.504 39.174 1.504s27.074-.51 39.174-1.504l7.64 92.79.024.251a47.182 47.182 0 0 1-11.705 36.664zm-35.132-145.341c-48.313 0-129.361-6.594-129.361-50.755 0-19.12 14.229-42.22 37.136-60.284 26.165-20.634 58.919-31.998 92.226-31.998s66.059 11.363 92.226 31.998c22.906 18.064 37.136 41.164 37.136 60.284-.003 44.161-81.05 50.755-129.363 50.755z"></path><path d="M424.347 231.737c-23.809-18.775-54.845-29.544-85.149-29.544a8.571 8.571 0 0 0 0 17.141c26.525 0 53.693 9.426 74.535 25.862 19.264 15.192 26.258 30.96 26.258 37.852a8.571 8.571 0 0 0 17.141 0c-.001-15.465-12.869-35.605-32.785-51.311z"></path></svg><svg width="70.846" height="70.746" viewBox="0 0 207 207" shape-rendering="geometricPrecision" text-rendering="geometricPrecision" image-rendering="optimizeQuality" fill-rule="evenodd" clip-rule="evenodd" id="phone" y="5100"><path class="fil0" d="M109 0c51 3 92 42 97 92h-11c-5-44-41-78-86-81V0zm37 128c1 2 0 3-1 4l-12 12c0 1-1 1-2 1-1 1-2 1-3 1h-7l-9-3c-4-2-8-4-13-7s-10-7-15-13c-4-4-8-8-11-12s-5-7-7-10c-1-4-2-7-3-9-1-3-2-5-2-7v-9c1-1 1-2 2-2l12-12c1-1 2-2 3-2s2 1 2 1l2 2 9 18c1 1 1 2 1 3 0 2-1 3-2 3l-4 5-1 1c1 1 1 3 2 4l3 6 7 7 7 7 6 3c1 1 2 1 3 1l1 1s0-1 1-1l5-5c1-1 3-2 4-2s2 1 3 1l17 10c1 1 2 2 2 3zm61-25c0 56-43 101-98 104v-11c49-3 87-43 87-93h11zM98 207c-55-3-98-48-98-104h11c0 50 39 90 87 93v11zM1 92C6 42 47 3 98 0v11c-45 3-81 37-86 81H1z"></path></svg><svg viewBox="0 0 503.607 503.607" width="503.607" height="503.607" id="pickles" y="5171"><path d="M176.787 235.016c5.036 0 8.393-3.357 8.393-8.393 0-5.036-3.357-8.393-8.393-8.393s-8.393 3.357-8.393 8.393c-.001 5.036 3.357 8.393 8.393 8.393zm-8.394 16.787c-5.036 0-8.393 3.357-8.393 8.393 0 5.036 3.357 8.393 8.393 8.393s8.393-3.357 8.393-8.393c.001-5.035-3.357-8.393-8.393-8.393zm16.787 50.361c-5.036 0-8.393 3.357-8.393 8.393s3.357 8.393 8.393 8.393 8.393-3.357 8.393-8.393-3.357-8.393-8.393-8.393zM160 327.344c-5.036 0-8.393 3.357-8.393 8.393 0 5.036 3.357 8.393 8.393 8.393s8.393-3.357 8.393-8.393c0-5.035-3.357-8.393-8.393-8.393zm106.597-37.77c-4.197-1.679-9.233 0-10.911 4.197s0 9.233 4.197 10.911 9.233 0 10.911-4.197-.001-9.233-4.197-10.911zm21.823-26.859c-4.197-1.679-9.233 0-10.911 4.197-1.679 4.197 0 9.233 4.197 10.911 4.197 1.679 9.233 0 10.911-4.197s-.001-9.233-4.197-10.911zm6.714-52.04c-4.197-1.679-9.233 0-10.911 4.197s0 9.233 4.197 10.911c4.197 1.679 9.233 0 10.911-4.197 1.679-4.196 0-9.232-4.197-10.911zm41.968 165.351c-3.357 2.518-3.357 8.393 0 11.751 3.357 3.357 8.393 3.357 11.751 0 3.357-3.357 3.357-8.393 0-11.751-3.358-3.357-8.394-3.357-11.751 0zm-29.377 17.626c-3.357 3.357-3.357 8.393 0 11.751 3.357 3.357 8.393 3.357 11.751 0 3.357-3.357 3.357-8.393 0-11.751s-8.394-3.357-11.751 0zm-23.502 47.004c-3.357 3.357-3.357 9.233 0 11.751 3.357 3.357 8.393 3.357 11.751 0 3.357-3.357 3.357-8.393 0-11.751-3.358-3.358-8.394-3.358-11.751 0zm-36.092 0c-3.357 3.357-3.357 9.233 0 11.751 3.357 3.357 8.393 3.357 11.751 0 3.357-3.357 3.357-8.393 0-11.751-3.357-3.358-8.394-3.358-11.751 0z"></path><path d="M405.928 83.934c-7.554-7.554-11.751-17.626-11.751-28.538V50.36h8.393c5.036 0 8.393-3.357 8.393-8.393s-3.357-8.393-8.393-8.393h-8.393V25.18c0-14.269-10.911-25.18-25.18-25.18H133.98c-13.43 0-25.18 11.751-25.18 25.18v8.393h-8.393c-5.036 0-8.393 3.357-8.393 8.393s3.357 8.393 8.393 8.393h8.393v5.036c0 10.911-4.197 20.984-11.751 28.538-6.715 6.715-10.072 15.948-10.072 25.18s3.357 18.466 10.072 25.18c3.35 3.35 7.414 5.667 11.751 6.96v320.384c0 23.502 18.466 41.967 41.967 41.967H352.21c10.911 0 20.984-5.036 29.377-12.59 8.393-7.554 12.59-18.466 12.59-29.377V141.255c4.337-1.293 8.401-3.61 11.751-6.96 14.269-14.269 14.269-36.092 0-50.361zM126.426 25.18c0-5.036 4.197-8.393 8.393-8.393h234.177c5.036 0 8.393 3.357 8.393 8.393v8.393H126.426V25.18zm75.541 260.197h.011c-.927 20.318-5.225 40.498-12.89 59.567-1.136-.523-2.449-.813-3.908-.813-5.036 0-8.393 3.357-8.393 8.393 0 4.124 2.254 7.12 5.836 8.07l-4.996 12.074c-4.197 8.393-11.751 13.429-20.984 13.429-7.554 0-14.269-5.036-18.466-10.911s-5.036-14.269-1.679-20.984a198.6 198.6 0 0 0 14.089-52.091c.332.032.67.051 1.019.051 5.036 0 8.393-3.357 8.393-8.393 0-4.892-3.173-8.19-7.97-8.376a199.544 199.544 0 0 0-6.238-59.1c3.569-.957 5.814-3.949 5.814-8.065 0-5.036-3.357-8.393-8.393-8.393-.846 0-1.64.102-2.383.284a197.598 197.598 0 0 0-4.332-11.195c-3.357-6.715-2.518-14.269 1.679-20.984 4.197-6.715 10.911-10.072 18.466-10.072 9.233 0 16.787 5.036 20.984 13.43l10.072 24.341c8.543 20.057 13.297 41.428 14.28 62.951h-.011c-5.036 0-8.393 3.357-8.393 8.393s3.357 8.394 8.393 8.394zm-76.38 49.68V218.91c12.584 37.539 12.584 78.609 0 116.147zm0 126.582v-74.125c7.56 9.57 18.581 15.371 31.056 15.371 15.948 0 29.377-9.233 36.092-23.502l10.072-25.18c20.984-49.521 20.984-105.757 0-155.279l-10.072-24.341c-5.875-14.269-20.144-23.502-36.092-23.502-12.387 0-24.049 5.722-31.056 15.172v-24.999a28.468 28.468 0 0 0 4.596-1.818l.161-.078c.207-.105.41-.216.614-.327a25.311 25.311 0 0 0 3.006-1.875l.214-.155c.29-.214.576-.432.859-.659.187-.149.37-.304.554-.458.197-.167.396-.33.588-.502.394-.351.781-.711 1.158-1.088l5.036-5.036c4.197-4.197 12.59-4.197 16.787 0l5.036 5.036c10.911 10.911 29.377 10.911 40.289 0l5.036-5.036c4.197-4.197 12.59-4.197 16.787 0l5.036 5.036.055.052a27.332 27.332 0 0 0 5.14 4.007c.086.053.171.107.258.159.168.099.338.193.507.289 4.252 2.427 9.216 3.886 14.185 3.886 4.969 0 9.933-1.459 14.186-3.887.169-.095.339-.189.506-.288.087-.052.172-.106.258-.159a27.43 27.43 0 0 0 5.194-4.059l5.036-5.036c4.197-4.197 12.59-4.197 16.787 0l5.036 5.036c10.911 10.911 29.377 10.911 40.289 0l5.036-5.036c4.197-4.197 12.59-4.197 16.787 0l5.036 5.036c3.35 3.35 7.414 5.667 11.751 6.96v28.442c-3.335-10.01-10.639-18.059-20.144-22.812-14.269-6.715-31.056-4.197-42.807 5.875l-20.144 17.626c-40.289 35.252-64.63 86.452-67.148 140.17l-.839 26.02c-.839 15.948 8.393 30.216 22.662 36.931 5.036 2.518 10.911 4.197 16.787 4.197 6.715 0 13.43-1.679 18.466-5.875 11.751-6.715 18.466-18.466 19.305-31.895 2.518-49.521 25.18-95.685 62.111-128.42 5.534-4.611 9.536-10.494 11.751-17.082v116.698c-8.855-6.657-20.26-9.447-31.056-7.288-12.59 2.518-23.502 10.911-28.538 23.502-18.466 46.165-55.397 82.257-100.722 100.723-11.751 5.036-20.984 15.948-23.502 28.538-2.092 10.458.463 21.487 6.675 30.216h-49.481c-14.269 0-25.18-10.912-25.18-25.181zM355.37 198.336c-.21-.087-.419-.176-.643-.251-4.197-1.679-9.233 0-10.911 4.197-.908 2.269-.826 4.78.097 6.876a195.982 195.982 0 0 0-24.94 31.388 9.296 9.296 0 0 0-1.176-.493c-4.197-1.679-9.233 0-10.911 4.197-1.612 4.03-.121 8.826 3.716 10.687a201.074 201.074 0 0 0-19.657 55.976c-3.779-.712-7.779 1.03-9.239 4.68-1.679 4.197 0 9.233 4.197 10.911.851.34 1.736.536 2.62.607a198.297 198.297 0 0 0-.942 11.983c0 7.554-4.197 14.269-10.911 18.466-6.715 4.197-14.269 4.197-20.984.839-8.393-3.357-12.59-11.751-12.59-20.984v-26.02c1.118-21.994 6.219-43.322 14.769-63.109.113.052.221.111.339.158 4.197 1.679 9.233 0 10.911-4.197 2.486-4.144.875-9.1-4.014-10.84 9.818-18.073 22.67-34.528 38.1-48.61.913 1.026 2.139 1.859 3.684 2.374 4.197 1.679 9.233 0 10.911-4.197 1.315-3.287.56-6.571-2.245-9.052l9.799-8.575c4.197-4.197 10.072-5.875 15.108-5.875 3.357 0 6.715.839 9.233 1.679 6.715 3.357 11.751 10.072 12.59 17.626.809 7.272-1.502 14.534-6.911 19.559zm-24.535 230.212c-3.348-2.987-8.129-2.874-11.359.357-3.212 3.212-3.343 7.957-.409 11.302a184.703 184.703 0 0 1-51.65 32.969 8.803 8.803 0 0 0-1.659-2.303c-3.357-3.357-8.393-3.357-11.751 0-2.442 2.442-3.099 5.769-1.989 8.695l-11.441 4.734c-8.393 3.357-17.626 1.679-24.341-5.036-5.036-5.036-7.554-12.59-5.875-20.144s5.875-13.43 13.43-15.948a201.31 201.31 0 0 0 47.537-27.422 9.02 9.02 0 0 0 1.145 1.403c3.357 3.357 8.393 3.357 11.751 0 3.357-3.357 3.357-8.393 0-11.751-.102-.102-.209-.19-.314-.286 14.595-13.382 27.212-28.933 37.284-46.22 3.201 1.926 7.209 1.487 10.033-1.337 3.357-3.357 3.357-8.393 0-11.751a8.82 8.82 0 0 0-2.273-1.645 194.319 194.319 0 0 0 4.791-10.946c2.518-6.715 8.393-11.751 15.948-13.43 1.679-.839 3.357-.839 5.036-.839 5.875 0 11.751 2.518 15.948 5.875 6.715 6.715 8.393 15.948 5.036 24.341l-10.072 24.341c-8.231 20.574-20.135 39.138-34.806 55.041zm39.001 50.718c-4.197 5.036-10.911 7.554-17.626 7.554h-72.675c43.19-20.249 78.408-55.518 97.855-99.789v74.609c0 6.714-2.518 12.589-7.554 17.626zm24.341-356.722c-4.197 4.197-12.59 4.197-16.787 0l-5.036-5.036c-5.036-5.875-12.59-8.393-20.144-8.393s-15.108 2.518-20.144 8.393l-5.036 5.036c-4.197 4.197-12.59 4.197-16.787 0l-5.036-5.036c-10.911-10.911-29.377-10.911-40.289 0l-5.036 5.036c-4.197 4.197-12.59 4.197-16.787 0l-5.036-5.036c-10.911-10.911-29.377-10.911-40.289 0l-5.036 5.036c-4.197 4.197-12.59 4.197-16.787 0l-5.036-5.036c-10.911-10.911-29.377-10.911-40.289 0l-5.036 5.036c-1.377 1.377-2.76 2.239-4.274 2.749-4.081 1-8.835.089-11.673-2.749-4.197-3.357-5.875-8.393-5.875-13.43s2.518-10.072 5.875-13.43c10.911-10.911 16.787-25.18 16.787-40.289v-5.036H377.39v5.036c0 15.108 5.875 29.377 16.787 40.289 7.554 7.555 7.554 19.306 0 26.86z"></path></svg><svg viewBox="0 0 42 42" width="42" height="42" id="plus" y="5675"><path d="M42 19H23V0h-4v19H0v4h19v19h4V23h19z"></path></svg><svg width="72.533" height="72.533" viewBox="0 0 337 337" shape-rendering="geometricPrecision" text-rendering="geometricPrecision" image-rendering="optimizeQuality" fill-rule="evenodd" clip-rule="evenodd" id="round-arrow-left" y="5717"><path class="fil0" d="M70 162l60-60c4-4 10-4 14 0 3 4 3 9 0 13l-44 44h160c5 0 9 4 9 10 0 5-4 9-9 9H100l44 44c3 4 3 10 0 13-2 2-5 3-7 3s-5-1-7-3l-60-60c-3-3-3-9 0-13zM169 0c93 0 168 75 168 169 0 93-75 168-168 168C75 337 0 262 0 169 0 75 75 0 169 0zm0 18c83 0 151 67 151 151 0 83-68 151-151 151-84 0-151-68-151-151C18 85 85 18 169 18z"></path></svg><svg viewBox="0 0 51.831 51.831" width="51.831" height="51.831" id="steak" y="5790"><path d="M49.594 14.106C47.749 9.562 44.308 3.652 38.385 1.295c-4.345-1.73-9.38-1.315-14.964 1.23-6.982 3.183-9.266 8.888-6.428 16.065.88 2.226.546 4.657-.895 6.503-1.443 1.849-3.727 2.76-6.105 2.454-3.792-.497-6.702.353-8.42 2.461-1.315 1.615-2.479 4.699-.56 10.219l.036.09c.137.299 3.463 7.35 11.999 10.172 1.844.61 3.754.779 5.601.942l.292.026c.616.055 1.68.126 3.061.126 3.447 0 8.873-.441 14.262-2.671 7.851-3.248 12.832-9.032 14.804-17.192 1.386-5.733.876-11.825-1.474-17.614zm-.47 17.144c-1.813 7.504-6.397 12.825-13.625 15.815-7.126 2.947-14.337 2.581-16.38 2.4l-.293-.026c-1.813-.16-3.525-.312-5.149-.849C6.3 46.151 3.15 40.057 2.884 39.517c-1.242-3.603-1.157-6.529.24-8.246 1.257-1.542 3.542-2.142 6.607-1.741 3.097.409 6.061-.792 7.944-3.206 1.881-2.411 2.32-5.577 1.177-8.469-2.456-6.213-.64-10.758 5.398-13.51 5.07-2.31 9.577-2.711 13.395-1.192 5.267 2.096 8.396 7.522 10.095 11.705 2.193 5.4 2.671 11.067 1.384 16.392z"></path><path d="M33.46 18.788c2.757 0 5-2.243 5-5s-2.243-5-5-5-5 2.243-5 5 2.243 5 5 5zm0-8c1.654 0 3 1.346 3 3s-1.346 3-3 3-3-1.346-3-3 1.346-3 3-3z"></path><path d="M47.785 24.246a25.753 25.753 0 0 0-1.886-8.554C41.557 5.002 34.427 1.75 24.747 6.157c-1.938.884-7.834 3.572-4.645 11.638 1.161 2.938.825 6.096-.921 8.661-1.977 2.907-5.398 4.428-8.936 3.961-2.635-.352-4.612.171-5.524 1.456-.967 1.361-.958 3.718.026 6.635l.058.137c.499.974 3.312 5.938 9.688 8.047 1.449.479 3.032.619 4.706.767l.283.025c.848.076 1.758.114 2.706.114 18.89 0 23.77-11.753 24.991-16.807.502-2.077.693-4.212.614-6.362.006-.063-.001-.122-.008-.183zM25.577 7.977c2.533-1.155 4.866-1.74 6.934-1.74 4.903 0 8.784 3.435 11.535 10.207a24.153 24.153 0 0 1 1.597 6.153c-4.479-1.264-12.412 2.665-13.736 3.347-5.981 1.902-8.751-.825-9.511-1.79.615-2.297.491-4.752-.435-7.094-2.193-5.551.597-7.707 3.616-9.083zm-4.741 19.604c.301-.442.558-.902.79-1.37 1.169 1.071 3.25 2.384 6.453 2.384 1.314 0 2.817-.222 4.521-.772a.982.982 0 0 0 .154-.064c3.939-2.052 10.765-4.544 13.057-2.926a21.362 21.362 0 0 1-.575 5.489l-.032.125c-2.178-.613-7.46-1.228-16.177 2.953-2.981 1.43-5.555 1.709-7.648.832-2.024-.848-3.157-2.609-3.659-3.599a11.208 11.208 0 0 0 3.116-3.052zm-1.175 17.91l-.284-.025c-1.557-.137-3.027-.267-4.256-.673-5.567-1.842-8.102-6.239-8.503-6.997-.857-2.58-.701-4.151-.266-4.765.435-.613 1.839-.869 3.632-.632 2 .264 3.963-.017 5.742-.729.06.325.123.693.181 1.09a12.711 12.711 0 0 0 5.327 8.595c2.058 1.419 3.449 2.699 3.512 4.156-.823.053-1.669.087-2.558.087a29.133 29.133 0 0 1-2.527-.107zm7.085-.159c-.161-2.71-2.837-4.562-4.376-5.624a10.66 10.66 0 0 1-3.867-4.907 8.413 8.413 0 0 0 2.078 1.265c2.649 1.121 5.781.831 9.312-.863 8.189-3.928 12.976-3.315 14.726-2.838-1.662 4.576-6.106 11.529-17.873 12.967z"></path></svg><svg width="60.79" height="70.13" viewBox="0 0 747683 862554" shape-rendering="geometricPrecision" text-rendering="geometricPrecision" image-rendering="optimizeQuality" fill-rule="evenodd" clip-rule="evenodd" id="thin" y="5842"><path class="fil0" d="M373844 0c124614 289105 249224 480589 373839 769694-249583 126785-498091 120793-747683 0L373844 0zm-9442 284512c19580 0 35455 15875 35455 35455s-15875 35454-35455 35454c-19579 0-35454-15874-35454-35454s15875-35455 35454-35455zm-85092 250554c28068 0 50823 22755 50823 50823s-22755 50823-50823 50823-50823-22755-50823-50823 22755-50823 50823-50823zm183187-95728c19580 0 35455 15875 35455 35454 0 19580-15875 35455-35455 35455s-35455-15875-35455-35455c0-19579 15875-35454 35455-35454zm-90378-329385L62602 747199c209168 89862 415793 93744 624445-4-51730-115917-109028-228097-167549-340946-50995-98331-101023-196147-147379-296296z"></path></svg><svg width="70.846" height="70.746" viewBox="0 0 298 298" shape-rendering="geometricPrecision" text-rendering="geometricPrecision" image-rendering="optimizeQuality" fill-rule="evenodd" clip-rule="evenodd" id="time" y="5913"><path class="fil0" d="M157 0c73 4 132 60 140 132h-16c-8-63-60-112-124-116V0zm-25 86h16v70h64v16h-80V86zm166 62v1c0 80-62 145-141 149v-16c70-4 125-62 125-133v-1h16zM141 298C62 294 0 229 0 149v-1h16v1c0 71 55 129 125 133v16zM1 132C9 60 68 4 141 0v16C77 20 25 69 17 132H1z"></path></svg><svg viewBox="0 0 496 496" width="496" height="496" id="vegetable" y="5984"><path d="M440 304c-10.032 0-19.64 4.32-28.048 12.512-3.56-3.456-7.352-6.304-11.368-8.368L417.144 184h-66.28l16.552 124.144c-4.016 2.064-7.808 4.912-11.368 8.368C347.648 308.376 337.968 304 328 304c-5.136 0-10.056 1.232-14.744 3.352C317.608 277.864 320 248.896 320 224c0-66.728-16.408-93.912-43.016-104.84l71.096-63.192L287.224 2.52l-31.912 66.832L265.224 0h-82.448l9.912 69.352L160.776 2.52 99.92 55.968l71.096 63.192C144.408 130.088 128 157.272 128 224c0 20.48 1.688 43.84 4.736 68.128a103.162 103.162 0 0 0-20.736-3.72V272c0-22.056-17.944-40-40-40H56v16h16c13.232 0 24 10.768 24 24v16.408C42.392 292.52 0 337.352 0 392c0 57.344 46.656 104 104 104 30.472 0 57.832-13.248 76.872-34.2C194.256 484.496 208.728 496 224 496c19.448 0 37.368-18.232 53.44-54.288C286.352 474.064 305.384 496 328 496c10.032 0 19.64-4.32 28.048-12.512C364.232 491.432 373.744 496 384 496s19.768-4.568 27.952-12.512C420.36 491.68 429.96 496 440 496c31.4 0 56-42.168 56-96s-24.6-96-56-96zm-41.136-104l-13.872 104.08c-.336-.008-.656-.08-.992-.08s-.656.072-.984.08L369.144 200h29.72zM292.552 28.496l31.36 27.544-65.224 57.984.136.152c-2.2-.368-4.448-.664-6.736-.92l40.464-84.76zM246.776 16l-13.712 96h-18.128l-13.712-96h45.552zM124.088 56.032l31.36-27.544 40.464 84.76c-2.288.256-4.536.56-6.736.92l.136-.152-65.224-57.984zM104 480c-48.52 0-88-39.48-88-88 0-45.824 35.216-83.536 80-87.592v47.168c-26.248-2.6-32.2-17.536-32.456-18.232l-15.136 5.184C48.816 339.736 58.76 368 104 368s55.184-28.264 55.584-29.472l-15.168-5.064c-.056.168-6.008 15.448-32.416 18.104V304.4c44.784 4.064 80 41.776 80 87.6 0 48.52-39.48 88-88 88zm168.368-69.088C257.192 454.2 239.168 480 224 480c-10 0-21.448-11.408-32.48-32.032C201.896 431.792 208 412.608 208 392c0-40.936-23.832-76.312-58.288-93.272C146.008 272 144 246.224 144 224c0-96 35.304-96 80-96 39.04 0 70.912.008 78.352 64H248v16h55.624c.24 5.024.376 10.328.376 16 0 5.144-.144 10.528-.344 16H216v16h86.8a615.924 615.924 0 0 1-3.056 32H280v16h17.576a664.492 664.492 0 0 1-2.984 18.592C280.824 339.92 272 367.832 272 400c0 3.704.144 7.336.368 10.912zM328 480c-21.68 0-40-36.64-40-80 0-30.152 8.864-57.016 21.552-70.608l.112.024.024-.16C315.216 323.392 321.448 320 328 320c7.256 0 13.328 4.192 17.976 9.088C334.896 346.52 328 371.592 328 400c0 28.416 6.896 53.504 17.992 70.936C341.672 475.44 335.472 480 328 480zm56 0c-21.68 0-40-36.64-40-80s18.32-80 40-80 40 36.64 40 80-18.32 80-40 80zm56 0c-7.48 0-13.68-4.56-17.992-9.072C433.104 453.496 440 428.416 440 400c0-28.416-6.896-53.504-17.992-70.928C426.328 324.56 432.528 320 440 320c21.68 0 40 36.64 40 80s-18.32 80-40 80z"></path><path d="M216 192h16v16h-16zm0 96h48v16h-48z"></path></svg></svg>