<?xml version="1.0" encoding="UTF-8"?>
<!DOCTYPE svg PUBLIC "-//W3C//DTD SVG 1.1//EN" "http://www.w3.org/Graphics/SVG/1.1/DTD/svg11.dtd">
<!-- Creator: CorelDRAW X7 -->
<svg xmlns="http://www.w3.org/2000/svg" xml:space="preserve" width="16.0841mm" height="18.5552mm" version="1.1" style="shape-rendering:geometricPrecision; text-rendering:geometricPrecision; image-rendering:optimizeQuality; fill-rule:evenodd; clip-rule:evenodd"
viewBox="0 0 747683 862554"
 xmlns:xlink="http://www.w3.org/1999/xlink">

 <g id="Слой_x0020_1">
  <metadata id="CorelCorpID_0Corel-Layer"/>
  <path class="fil0" d="M373844 0c124614,289105 249224,480589 373839,769694 -249583,126785 -498091,120793 -747683,0l373844 -769694zm-9442 284512c19580,0 35455,15875 35455,35455 0,19580 -15875,35454 -35455,35454 -19579,0 -35454,-15874 -35454,-35454 0,-19580 15875,-35455 35454,-35455zm-85092 250554c28068,0 50823,22755 50823,50823 0,28068 -22755,50823 -50823,50823 -28068,0 -50823,-22755 -50823,-50823 0,-28068 22755,-50823 50823,-50823zm183187 -95728c19580,0 35455,15875 35455,35454 0,19580 -15875,35455 -35455,35455 -19580,0 -35455,-15875 -35455,-35455 0,-19579 15875,-35454 35455,-35454zm-90378 -329385l-309517 637246c209168,89862 415793,93744 624445,-4 -51730,-115917 -109028,-228097 -167549,-340946 -50995,-98331 -101023,-196147 -147379,-296296z"/>
 </g>
</svg>
