<?xml version="1.0" encoding="UTF-8"?>
<!DOCTYPE svg PUBLIC "-//W3C//DTD SVG 1.1//EN" "http://www.w3.org/Graphics/SVG/1.1/DTD/svg11.dtd">
<!-- Creator: CorelDRAW X7 -->
<svg xmlns="http://www.w3.org/2000/svg" xml:space="preserve" width="18.7448mm" height="18.7182mm" version="1.1" style="shape-rendering:geometricPrecision; text-rendering:geometricPrecision; image-rendering:optimizeQuality; fill-rule:evenodd; clip-rule:evenodd"
viewBox="0 0 298 298"
 xmlns:xlink="http://www.w3.org/1999/xlink">

 <g id="Слой_x0020_1">
  <metadata id="CorelCorpID_0Corel-Layer"/>
  <path class="fil0" d="M157 0c73,4 132,60 140,132l-16 0c-8,-63 -60,-112 -124,-116l0 -16zm-25 86l16 0 0 70 64 0 0 16 -80 0 0 -6 0 -10 0 -70zm166 62l0 1c0,80 -62,145 -141,149l0 -16c70,-4 125,-62 125,-133l0 -1 16 0zm-157 150c-79,-4 -141,-69 -141,-149l0 -1 16 0 0 1c0,71 55,129 125,133l0 16zm-140 -166c8,-72 67,-128 140,-132l0 16c-64,4 -116,53 -124,116l-16 0z"/>
 </g>
</svg>
