<?xml version="1.0" encoding="UTF-8"?>
<!DOCTYPE svg PUBLIC "-//W3C//DTD SVG 1.1//EN" "http://www.w3.org/Graphics/SVG/1.1/DTD/svg11.dtd">
<!-- Creator: CorelDRAW X7 -->
<svg xmlns="http://www.w3.org/2000/svg" xml:space="preserve" width="178.448mm" height="178.448mm" version="1.1" style="shape-rendering:geometricPrecision; text-rendering:geometricPrecision; image-rendering:optimizeQuality; fill-rule:evenodd; clip-rule:evenodd"
viewBox="0 0 18448 18448"
 xmlns:xlink="http://www.w3.org/1999/xlink">
 <defs>
  <style type="text/css">
   <![CDATA[
    .fil2 {fill:black}
    .fil0 {fill:#CA0D15}
    .fil3 {fill:#FFC500}
    .fil1 {fill:white}
   ]]>
  </style>
 </defs>
 <g id="Слой_x0020_1">
  <metadata id="CorelCorpID_0Corel-Layer"/>
  <g id="_650648496">
   <circle class="fil0" cx="9224" cy="9224" r="9224"/>
   <g>
    <path class="fil1" d="M8056 2836c-6,6 -193,142 -505,443 -23,-108 -57,-284 -80,-386 -102,17 -210,40 -312,57 0,0 -5,0 -5,6 68,351 153,771 227,1123 0,0 0,0 0,6 164,-171 334,-335 521,-494 17,102 34,187 57,289 102,-11 204,-28 307,-39 0,0 5,0 5,0 6,-12 -57,-329 -215,-1005 0,6 0,0 0,0z"/>
    <g>
     <path class="fil1" d="M12152 3086c-6,17 -6,34 -6,51 -34,-45 -74,-85 -108,-125 -204,273 -488,704 -669,1010 96,23 198,46 295,68 17,-28 34,-57 56,-85 102,17 199,40 301,63 -6,39 -11,79 -17,119 85,28 176,51 261,79 62,-340 125,-681 181,-1021 -107,-51 -204,-102 -294,-159l0 0zm-278 635c79,-113 164,-226 249,-340 -17,131 -34,255 -51,380 -68,-11 -130,-28 -198,-40z"/>
    </g>
    <path class="fil1" d="M5735 3364c125,318 250,630 375,947 91,-28 176,-62 266,-90 -68,-199 -141,-397 -209,-596 -6,-6 56,-34 181,-85 68,210 136,414 204,624 108,-34 222,-62 335,-91 -119,-442 -210,-783 -267,-1015 -300,90 -595,193 -885,306z"/>
    <path class="fil1" d="M9570 3449c6,-164 23,-596 23,-692 0,0 -6,0 -6,0 -107,-6 -210,-11 -317,-11 0,113 0,539 0,703 -63,0 -131,0 -193,0 -6,-221 -12,-482 -17,-703 -131,5 -261,11 -397,17 28,454 45,800 56,1049 0,0 0,0 0,0 239,-11 471,-17 709,-17 0,6 0,12 0,23 0,0 0,0 0,0 0,11 0,34 0,68 0,11 0,28 0,40 0,0 0,0 0,5 97,-5 176,-17 239,-28 0,-250 0,-352 5,-454 -28,0 -62,0 -102,0z"/>
    <path class="fil1" d="M10994 3597c29,-159 102,-585 125,-687 0,0 0,0 0,0 -108,-22 -210,-39 -312,-57 -17,108 -79,534 -102,698 -63,-11 -131,-17 -193,-28 28,-221 57,-482 85,-698 -130,-17 -261,-28 -391,-40 -34,454 -68,800 -97,1050 0,0 0,0 0,0 238,17 471,51 704,85 0,6 0,11 0,23 0,11 -6,34 -12,68 0,11 -5,28 -5,40 0,0 0,0 0,0 96,5 176,11 244,11 34,-250 51,-352 68,-448 -46,-6 -80,-12 -114,-17z"/>
   </g>
   <g id="_650643056">
    <g>
     <path class="fil1" d="M13700 3841l-57 -63c-5,-5 -11,-5 -17,-5 -5,0 -11,0 -17,5 -90,97 -164,204 -215,329 -51,125 -85,256 -91,386 0,6 0,11 6,17 5,6 11,6 17,6l85 0c11,-125 40,-250 91,-363 51,-114 119,-216 198,-312l0 0zm0 0z"/>
     <path class="fil1" d="M14330 4521c6,-11 0,-17 -6,-28l-578 -607c-80,85 -142,187 -188,295 -45,108 -73,221 -85,340l834 12c12,5 23,0 23,-12l0 0zm-278 -261c11,12 17,34 6,46 -12,11 -29,17 -46,5 -5,-5 -74,-56 -130,0 -12,12 -34,12 -46,0 -5,-5 -5,-5 -5,-11 -6,-11 0,-23 5,-34 80,-79 176,-40 216,-6l0 0zm-340 -39c-34,-17 -51,-57 -34,-91 17,-34 56,-51 90,-34 34,17 51,57 34,91 -11,28 -51,45 -90,34l0 0zm34 221c-6,0 -57,-11 -125,-62 -6,-6 -6,-12 -12,-12 -5,-11 -5,-23 6,-34 11,-17 29,-17 46,-6 56,40 96,52 96,52 17,5 28,17 28,39 -5,17 -17,29 -39,23l0 0zm374 28l-68 -11c-6,0 -11,-6 -17,-11 -6,-6 -6,-12 -6,-17l6 -29c0,-5 6,-11 11,-17 6,-5 12,-5 17,-5l68 11c12,0 23,11 23,28l-6 29c-5,17 -17,28 -28,22l0 0zm0 0z"/>
    </g>
   </g>
   <g id="_650630768">
    <g>
     <path class="fil1" d="M4652 3841c85,90 153,198 204,312 51,113 79,238 91,363l85 0c6,0 11,0 17,-6 6,-6 6,-11 6,-17 -6,-130 -34,-261 -91,-386 -51,-125 -125,-232 -216,-329 -5,-5 -11,-5 -17,-5 -5,0 -11,0 -17,5l-62 63 0 0zm0 0z"/>
     <path class="fil1" d="M4022 4521c6,12 11,17 23,17l834 -11c-12,-119 -40,-233 -85,-340 -46,-108 -108,-205 -188,-295l-578 607c-6,5 -12,11 -6,22l0 0zm278 -261c40,-34 142,-73 216,6 11,11 11,23 5,34 0,6 -5,6 -5,11 -12,12 -34,12 -46,0 -51,-56 -125,-5 -130,0 -12,12 -34,12 -46,-5 -11,-12 -5,-34 6,-46l0 0zm340 -39c-34,17 -79,0 -90,-34 -17,-34 0,-80 34,-91 34,-17 79,0 91,34 17,28 0,74 -35,91l0 0zm-34 221c-17,0 -34,-11 -34,-28 0,-17 12,-34 29,-40 0,0 39,-6 96,-51 17,-12 34,-6 46,5 5,12 5,23 5,35 0,5 -5,11 -11,11 -74,62 -125,68 -131,68l0 0zm-368 28c-12,0 -23,-5 -29,-22l-5 -29c0,-11 5,-22 22,-28l68 -11c6,0 12,0 17,5 6,6 6,12 12,17l5 29c0,5 0,11 -5,17 -6,5 -12,5 -17,11l-68 11 0 0zm0 0z"/>
    </g>
   </g>
   <path class="fil2" d="M16786 6121l-306 -91c-346,-102 -703,-176 -1061,-227 -176,-22 -363,-45 -556,-62 -11,0 -23,-6 -34,-6l-45 -5c-63,-6 -136,-12 -216,-17 -45,-6 -91,-6 -147,-6 -29,0 -57,0 -91,0l-34 0 -28 0c-40,0 -80,0 -131,6l-17 0c-51,0 -108,5 -159,5l-596 40 -102 556c-232,-40 -431,-74 -590,-91 -175,-22 -357,-34 -550,-45l-17 0c-108,0 -221,6 -346,11 -113,12 -227,23 -352,40 -45,6 -85,17 -130,23l11 -789 -3682 227 -11 726 -1061 63 -5 39 -335 29c-341,28 -579,51 -755,62l-238 -1203 -499 125c-28,6 -658,165 -1050,318 -567,221 -1089,516 -1554,885 -267,210 -596,482 -607,493l-306 256 2263 4254 238 40c188,28 392,62 607,74l897 4124 1696 -250 -108 -907c80,-17 159,-34 244,-57 6,6 11,17 11,23 114,210 267,397 454,550 193,159 414,278 670,357 193,57 402,91 629,91 68,0 142,0 222,-11 244,-23 471,-97 675,-216l17 193 522 -11c73,0 232,0 578,11l318 12 414 28c255,17 477,40 681,68l505 62 102 -493c244,-1118 522,-2247 822,-3359l34 -119 443 85 397 -1548c579,-154 1084,-329 1520,-528 63,-28 120,-57 176,-85l63 -34c11,-6 28,-17 45,-23l11 -5c91,-46 176,-97 261,-154 165,-102 295,-192 403,-278l221 -175 -431 -3081z"/>
   <g id="_650637008">
    <path class="fil3" d="M6320 10450l-74 527 1299 6c28,6 45,6 45,0 29,-1447 284,-3795 386,-4147l-1032 62c-63,698 -102,1640 -102,1640l-647 -1543c0,0 -1123,96 -1140,102l1418 2592 295 97c0,0 -6,255 -6,522l-442 142z"/>
    <path class="fil3" d="M2593 9116l1134 2139c743,125 1180,125 2451,-278l-289 -1089 -619 272 -17 233c-357,57 -454,51 -590,23 -255,-51 -1185,-2440 -1208,-2587 -11,-63 -6,-63 68,-108l857 -267 79 301 641 -165 -318 -1622c0,0 -624,159 -992,301 -369,141 -891,391 -1430,811 -261,204 -596,488 -596,488l636 1197 193 351z"/>
    <path class="fil3" d="M10597 7086c40,0 85,-12 136,-17l17 -1129 -2700 164 -11 828c51,12 102,23 164,34l-23 4091 863 -12c0,0 68,-2195 73,-2439 12,-244 23,-477 34,-698l6 -45c12,-199 23,-380 29,-534 5,-73 5,-130 11,-181 11,0 23,0 40,0l5 0c68,0 74,0 114,6 79,5 125,5 210,5 -6,51 -12,114 -17,182 -12,159 -17,335 -23,527 -6,432 0,789 17,1078 11,290 34,2082 34,2082l908 57c-29,-885 79,-3852 85,-3999l28 0z"/>
    <path class="fil1" d="M11482 15198l-6 62 63 6c238,17 471,40 698,68l56 6 12 -57c249,-1129 527,-2269 828,-3381l17 -68 -68 -12c-380,-68 -766,-124 -1152,-170l-62 -5 -6 62c-57,391 -108,777 -159,1169 -278,-40 -669,-74 -817,-91l-11 -1220 -62 0c-6,0 -607,-23 -970,-23l-148 0 11 69c40,340 80,680 125,1026 -130,-187 -306,-323 -533,-408 -187,-68 -374,-108 -562,-108 -51,0 -102,0 -141,6 -114,-6 -222,5 -330,40 -102,34 -187,68 -255,107 -91,46 -170,97 -244,159 -39,34 -79,74 -119,114 -51,-159 -119,-295 -210,-409 -136,-170 -300,-306 -488,-403 -187,-96 -402,-153 -629,-181 -227,-29 -454,-34 -692,-17 -69,6 -142,11 -233,23 -148,17 -357,51 -613,102l-62 11 805 3699 772 -114 -113 -924c209,0 448,-40 720,-114 74,-28 164,-79 267,-142 28,-17 51,-34 79,-51 28,159 85,324 170,477 85,159 199,295 335,408 142,114 306,204 499,267 148,45 306,68 482,68 57,0 114,0 176,-6 176,-17 341,-68 482,-159 142,-85 267,-192 363,-317 97,-119 176,-250 239,-380 5,-12 5,-17 11,-29 28,267 57,534 85,800l6 57 79 0c193,0 613,11 619,11l62 0 11 -1412c142,11 471,45 727,79l-18 170c-39,585 -96,1112 -96,1135zm-4623 -1918c-34,114 -97,199 -176,250 -85,57 -165,96 -222,113 -62,12 -119,23 -181,35 -51,5 -113,11 -187,22l-193 -1271c11,-5 23,-11 51,-17 119,-34 312,-39 511,17 96,29 175,74 243,142 63,57 114,153 159,284 46,136 40,278 -5,425zm2592 534c-17,90 -45,170 -79,238 -34,68 -68,119 -114,159 -39,40 -79,68 -108,79 -62,34 -141,51 -238,57 -17,0 -34,0 -51,0 0,0 0,0 0,0 -74,0 -142,-11 -215,-34 -91,-34 -182,-108 -273,-227 -90,-113 -130,-261 -125,-431 0,-187 35,-329 108,-414 80,-91 187,-170 312,-233 68,-23 136,-34 199,-34 17,0 40,0 57,6 85,5 153,22 204,51 57,28 113,74 164,142 57,68 97,176 131,323 45,125 45,227 28,318z"/>
    <path class="fil3" d="M12481 7664c11,0 22,0 34,0l17 216 584 -17 147 -1089 -62 -12c-244,-45 -454,-74 -618,-96 -171,-23 -335,-34 -505,-40l-6 0c-108,0 -216,6 -306,11 -91,6 -199,17 -318,40 -119,17 -238,40 -357,74l-57 17 -6 68c0,11 0,34 -5,164 -6,91 -6,210 -12,369l-11 511c-6,164 -17,363 -23,539l-187 5 -17 1073c68,5 113,17 142,22l-6 273 -79 1287 1855 102 28 -181 0 0 63 -454 34 -267 22 -181 -573 -102 -68 193 -550 -80 62 -590c119,0 953,-62 953,-62l216 -1033c0,0 -1004,-51 -1050,-51l63 -658c215,-34 420,-45 596,-51z"/>
    <path class="fil3" d="M15300 6240c-176,-28 -357,-45 -539,-62 -11,0 -23,-6 -34,-6l0 0c-11,0 -23,0 -34,-5 -62,-6 -130,-12 -210,-18 -34,-5 -74,-5 -119,-5 -23,0 -51,0 -79,0 -17,0 -34,0 -52,0 -39,0 -79,0 -119,5 -5,0 -11,0 -22,0 -46,0 -97,6 -148,6 -40,0 -79,6 -125,6l-79 6 -908 5083 902 175 358 -1384c675,-159 1242,-352 1713,-567 91,-40 176,-85 261,-131 0,0 0,0 6,0 85,-45 164,-90 238,-136 125,-79 249,-159 357,-244l-363 -2507c-335,-97 -669,-170 -1004,-216zm-159 2581c-147,63 -323,165 -828,312l420 -1650c130,17 244,34 317,62 0,0 6,0 6,0 11,6 17,11 28,11 6,0 6,6 12,6 5,6 11,6 17,11 5,6 11,17 17,23 5,17 17,51 22,91 6,11 6,28 12,45 0,6 6,17 6,23 5,17 5,34 11,51 0,11 6,17 6,28 73,341 141,908 -46,987z"/>
   </g>
   <g id="_650636720">
    <g>
     <path class="fil2" d="M7976 6836c-102,352 -357,2700 -386,4147 0,0 -5,6 -11,6 -6,0 -17,0 -34,-6l-1299 -6 74 -527 442 -148c0,-267 6,-522 6,-522l-295 -96 -1418 -2593c17,-5 1140,-102 1140,-102l647 1543c0,0 34,-942 102,-1639l1032 -57 0 0zm6 -6l-11 0 -1033 63 -6 0 0 5c-56,624 -90,1453 -102,1611l-635 -1520 0 -6 -6 0c-113,12 -1123,97 -1140,103l-6 0 6 5 1418 2593 0 0 0 0 295 91c0,34 -5,272 -5,516l-443 147 -6 0 0 6 -73 528 0 5 5 0 1299 6c12,0 29,6 34,6 12,0 12,0 17,-6l0 0 0 0c29,-1469 290,-3795 386,-4141l6 -12 0 0z"/>
    </g>
    <g>
     <path class="fil2" d="M4782 5962l318 1623 -641 164 -79 -300 -857 266c-74,51 -80,51 -68,108 28,148 953,2536 1208,2587 63,11 119,23 193,23 91,0 204,-12 403,-46l17 -232 618 -273 290 1090c-817,260 -1288,351 -1719,351 -239,0 -466,-28 -727,-74l-1134 -2138 -187 -358 -636 -1197c0,0 335,-283 596,-487 533,-420 1061,-670 1430,-812 351,-136 975,-295 975,-295l0 0zm6 -5l-6 0c-5,0 -629,158 -992,300 -522,205 -1005,477 -1430,812 -261,204 -596,487 -596,487l-5 6 0 6 641 1197 187 357 1134 2139 0 0 6 0c227,40 471,74 726,74 443,0 925,-97 1725,-352l6 0 0 -6 -290 -1089 0 -6 -5 6 -619 272 -5 0 0 6 -12 227c-187,28 -306,40 -397,40 -74,0 -125,-6 -193,-23 -102,-23 -346,-465 -686,-1254 -273,-635 -505,-1259 -516,-1327 -12,-51 -6,-57 51,-97l11 -5 851 -267 79 295 0 6 6 0 641 -165 6 0 0 -6 -318 -1622 0 -11 0 0z"/>
    </g>
    <g>
     <path class="fil2" d="M10750 5940l-17 1129c-51,5 -96,11 -136,17l-34 0c-6,147 -113,3120 -85,3999l-908 -57c0,0 -17,-1792 -34,-2082 -11,-283 -17,-646 -17,-1078 6,-192 12,-368 23,-527 6,-68 11,-131 17,-182 -17,0 -34,0 -51,0 -57,0 -97,0 -159,-5 -40,-6 -45,-6 -113,-6l-6 0c-11,0 -28,0 -40,0 -5,51 -5,113 -11,181 -6,154 -17,329 -29,534l-5 45c-12,221 -23,460 -34,698 -12,244 -74,2439 -74,2439l-862 12 22 -4091c-62,-11 -113,-22 -164,-34l11 -828 2706 -164 0 0zm6 -6l-6 0 -2700 164 -6 0 0 6 -11 828 0 6 6 0c39,11 73,17 119,28l39 12 -22 4090 0 6 5 0 863 -12 5 0 0 -5c0,-23 68,-2196 74,-2440 6,-113 11,-227 17,-334 6,-125 11,-250 17,-369l6 -46c6,-124 11,-238 17,-346 6,-62 6,-124 11,-187 0,-23 0,-40 6,-62 0,-46 6,-85 6,-119 11,0 22,0 34,0l5 0c68,0 74,0 114,5 62,6 102,6 159,6 11,0 28,0 45,0 -6,45 -11,102 -17,176 -11,176 -17,352 -23,527 -5,420 0,783 17,1078 12,290 34,2065 34,2082l0 6 6 0 908 57 5 0 0 -6c-17,-516 12,-1804 80,-3829 5,-85 5,-148 5,-170l29 0c39,-6 91,-12 136,-17l6 0 0 -6 17 -1129 -6 0 0 0z"/>
    </g>
    <g>
     <path class="fil2" d="M5889 11539c147,0 295,5 442,28 227,29 443,91 630,182 187,96 351,232 488,403 90,113 158,249 209,408 35,-40 74,-79 120,-114 73,-62 153,-113 244,-158 68,-40 153,-74 255,-108 85,-29 181,-40 272,-40 17,0 34,0 51,0 40,-6 91,-6 142,-6 187,0 374,35 562,108 221,85 402,222 533,409 -40,-341 -79,-687 -125,-1027l-11 -68 147 0c363,0 965,23 970,23l63 0 11 1219c148,12 539,51 817,91 51,-391 102,-783 159,-1169l6 -62 62 6c386,45 777,102 1152,170l68 11 -17 68c-301,1112 -579,2247 -829,3381l-11 57 -57 -6c-227,-28 -465,-51 -697,-68l-63 -5 6 -63c0,-22 57,-550 113,-1134l17 -171c-255,-34 -584,-68 -726,-79l-11 1413 -63 0c-5,0 -419,-12 -618,-12l-79 0 -6 -56c-28,-267 -57,-534 -85,-800 -6,11 -6,17 -12,28 -56,130 -136,261 -238,380 -96,125 -221,233 -363,318 -142,91 -306,142 -482,159 -62,5 -125,5 -176,5 -176,0 -335,-22 -482,-68 -193,-62 -363,-147 -499,-266 -136,-114 -256,-250 -335,-409 -85,-153 -142,-312 -170,-476 -29,17 -51,39 -80,51 -102,62 -193,113 -266,141 -273,80 -511,114 -721,114l114 925 -772 113 -805 -3699 62 -11c255,-51 465,-85 613,-102 91,-11 164,-17 232,-23 74,-11 159,-11 239,-11l0 0zm204 2161c79,-5 142,-11 187,-22 62,-12 119,-23 181,-35 57,-17 131,-51 222,-113 79,-51 142,-136 176,-250 45,-153 51,-295 5,-425 -45,-136 -96,-227 -159,-284 -68,-68 -147,-113 -244,-142 -107,-28 -209,-39 -300,-39 -80,0 -153,11 -210,22 -23,6 -40,12 -51,17l193 1271 0 0zm2774 653c0,0 0,0 0,0 17,0 34,0 51,0 91,-6 170,-23 238,-57 34,-17 68,-40 108,-80 40,-39 79,-90 113,-158 34,-68 63,-148 80,-239 17,-90 17,-193 -6,-312 -34,-147 -74,-261 -130,-323 -57,-68 -114,-113 -165,-142 -51,-28 -125,-45 -204,-51 -23,0 -40,-6 -57,-6 -68,0 -136,12 -198,34 -125,57 -233,137 -312,233 -74,85 -108,227 -108,414 -11,176 34,318 125,431 90,119 181,193 272,227 51,17 119,29 193,29l0 0zm-2978 -2820c-86,0 -165,0 -250,6 -79,5 -153,11 -233,23 -153,17 -368,51 -618,102l-62 11 -6 0 0 6 805 3698 0 6 6 0 772 -113 5 0 0 -6 -113 -919c210,0 442,-40 715,-114 73,-28 164,-79 272,-141 23,-12 45,-29 74,-46 28,159 85,318 170,465 85,159 198,295 340,409 142,119 312,204 505,267 142,45 307,68 482,68 57,0 120,0 182,-6 176,-17 340,-68 482,-159 142,-91 267,-198 363,-318 97,-119 176,-249 238,-385 0,0 0,-6 0,-6 6,62 12,125 23,187 23,193 40,392 63,584l5 57 0 6 6 0 79 0c114,0 312,6 596,11 11,0 23,0 23,0l62 0 6 0 0 -5 11 -1407c68,5 431,39 715,79l-17 165 -46 453c-39,386 -68,664 -68,681l-5 63 0 5 5 0 63 6c261,23 488,40 698,68l56 6 6 0 0 -6 11 -57c244,-1129 522,-2263 829,-3375l17 -68 0 -6 -6 0 -68 -11c-380,-68 -772,-125 -1152,-170l-62 -6 -6 0 0 6 -6 62c-56,420 -107,800 -158,1163 -267,-34 -636,-74 -806,-91l-11 -1214 0 -6 -6 0 -62 0c0,0 -602,-22 -970,-22l-148 0 -6 0 0 5 12 69c34,255 62,516 91,765 11,80 17,154 28,233 -131,-182 -306,-312 -522,-391 -187,-69 -380,-108 -562,-108 -56,0 -107,0 -147,5 -17,0 -34,0 -51,0 -97,0 -187,12 -278,40 -102,34 -187,68 -255,108 -91,45 -171,102 -244,159 -40,34 -80,74 -108,108 -51,-159 -125,-295 -204,-398 -137,-170 -301,-306 -494,-402 -193,-97 -403,-159 -635,-182 -131,-11 -278,-17 -431,-17l0 0zm22 902c12,-6 29,-11 46,-17 56,-17 130,-23 204,-23 96,0 204,17 301,40 96,29 175,74 243,142 63,57 114,153 159,284 40,136 40,272 -5,419 -34,114 -97,199 -176,250 -85,57 -159,96 -216,108 -57,11 -119,23 -181,34 -46,6 -108,11 -182,23l-193 -1260 0 0zm2956 1912c-68,0 -142,-11 -210,-34 -85,-28 -176,-108 -267,-221 -90,-114 -130,-261 -119,-431 0,-188 34,-324 108,-409 74,-91 182,-170 312,-227 68,-23 136,-34 199,-34 22,0 39,0 56,6 85,5 153,22 205,51 56,28 113,74 164,136 57,62 96,176 130,323 23,119 23,222 6,307 -17,90 -45,170 -79,238 -34,62 -68,119 -108,159 -40,40 -74,68 -108,79 -62,34 -142,51 -232,57l-12 0c-22,0 -34,0 -45,0l0 0 0 0z"/>
    </g>
    <g>
     <path class="fil2" d="M12066 6620l0 0c171,6 341,17 511,40 164,23 374,51 618,97l63 11 -148 1089 -584 17 -17 -216c-11,0 -23,0 -34,0 -176,6 -380,18 -613,40l-62 658c0,0 0,0 0,0 68,0 1044,51 1044,51l-216 1033c0,0 -806,62 -947,62 0,0 -6,0 -6,0l-62 590 550 80 68 -193 573 102 -23 181 -34 267 -62 454 0 0 -29 181 -1855 -102 80 -1287 5 -273c-28,-11 -73,-17 -141,-22l17 -1073 187 -5c6,-176 23,-375 23,-539l11 -511c6,-153 6,-272 11,-369 6,-130 6,-153 6,-164l6 -68 56 -17c119,-29 239,-51 358,-74 119,-17 227,-28 317,-40 114,6 222,0 329,0l0 0zm0 -5l0 0c-96,0 -198,5 -306,11 -102,6 -210,23 -318,40 -119,17 -244,45 -357,73l-57 18 -5 0 0 5 -6 68c0,12 0,23 -6,102l-5 63c-6,91 -6,210 -12,369l-11 510c0,91 -6,199 -11,295 -6,79 -6,159 -12,238l-181 6 -6 0 0 6 -17 1072 0 6 6 0c73,5 113,17 136,22l-6 273 -79 1287 0 6 5 0 1855 102 6 0 0 -6 23 -175 0 0 0 -6 62 -454 34 -267 23 -181 0 -6 -6 0 -573 -102 -5 0 0 6 -68 187 -539 -79 62 -579 0 0c136,0 942,-62 947,-62l6 0 0 -6 216 -1033 0 -5 -6 0c-11,0 -947,-46 -1044,-51l63 -647c226,-23 431,-34 607,-40l11 0c6,0 11,0 17,0l17 210 0 6 6 0 584 -17 6 0 0 -6 147 -1089 0 -6 -6 0 -62 -11c-250,-46 -454,-74 -618,-97 -171,-34 -341,-51 -517,-56l0 0 0 0 0 0z"/>
    </g>
    <g>
     <path class="fil2" d="M14250 6144c12,0 23,0 35,0 28,0 51,0 79,0 45,0 79,0 119,5 79,6 148,12 210,18 11,0 23,5 34,5l0 0c11,0 23,6 34,6 182,17 363,34 539,62 335,51 669,119 998,216l364 2507c-108,85 -227,165 -358,244 -74,46 -159,91 -238,136 0,0 0,0 -6,0 -85,46 -170,85 -261,131 -471,215 -1038,408 -1713,567l-357 1384 -902 -175 907 -5083 80 -6c45,-6 85,-6 124,-6 52,-5 103,-5 148,-5 6,0 17,0 23,0 39,0 79,0 119,-6 11,0 17,0 22,0l0 0zm69 2989c504,-147 680,-249 828,-312 187,-79 113,-646 45,-981 0,-11 -5,-17 -5,-28 -6,-17 -6,-34 -12,-51 0,-6 -5,-17 -5,-23 -6,-17 -6,-34 -12,-45 -11,-40 -17,-74 -23,-91 -5,-6 -5,-17 -17,-23 -5,-6 -11,-6 -17,-11 -5,0 -5,-6 -11,-6 -11,-6 -17,-11 -28,-11 0,0 0,0 -6,0 -74,-29 -187,-46 -318,-63l-419 1645 0 0zm-69 -2995c-5,0 -11,0 -17,0 -39,0 -79,0 -119,6l-5 0c-6,0 -12,0 -17,0 -46,0 -97,6 -148,6l-34 0c-28,0 -62,5 -91,5l-79 6 -6 0 0 6 -907 5083 0 5 5 0 902 176 6 0 0 -6 352 -1378c663,-159 1242,-346 1713,-567 91,-40 176,-86 261,-131l0 0 0 0 0 0c85,-45 164,-91 238,-136 148,-91 261,-170 358,-250l0 0 0 -5 -364 -2508 0 -6 -5 0c-324,-96 -664,-164 -999,-215 -170,-23 -351,-45 -539,-62l-11 0c-6,0 -17,0 -23,-6l-5 0 -6 0c-11,0 -17,0 -28,-6 -57,-6 -125,-11 -210,-17 -34,0 -68,-6 -119,-6 -23,0 -51,0 -80,0l-17 0 -6 6 0 0zm74 2990l420 -1634c131,17 238,34 312,62 0,0 0,0 6,0l0 0 0 0c11,6 17,6 22,12l6 0c0,0 6,0 6,5 0,0 0,0 5,6l6 6c6,0 6,5 11,5 6,6 12,12 12,23 5,11 11,46 22,91l6 11c0,12 6,23 6,34 0,6 0,6 0,12 0,5 0,5 0,11l0 11c6,12 6,29 11,40 0,6 6,17 6,23l0 0c91,425 125,907 -40,975 -34,12 -62,29 -102,46 -136,57 -323,142 -715,261l0 0z"/>
    </g>
   </g>
  </g>
 </g>
</svg>
