<svg xmlns="http://www.w3.org/2000/svg" xmlns:xlink="http://www.w3.org/1999/xlink" width="512" height="3892" viewBox="0 0 512 3892"><svg width="29.883" height="54.421" viewBox="0 0 68 124" shape-rendering="geometricPrecision" text-rendering="geometricPrecision" image-rendering="optimizeQuality" fill-rule="evenodd" clip-rule="evenodd" id="arrow-custom" y="0"><path class="fil0" d="M6 0l56 56 6 6-6 6-56 56-6-6 56-56L0 6z"></path></svg><svg viewBox="0 0 129 129" width="129" height="129" id="arrow-down" y="55"><path d="M121.3 34.6c-1.6-1.6-4.2-1.6-5.8 0l-51 51.1-51.1-51.1c-1.6-1.6-4.2-1.6-5.8 0-1.6 1.6-1.6 4.2 0 5.8l53.9 53.9c.8.8 1.8 1.2 2.9 1.2 1 0 2.1-.4 2.9-1.2l53.9-53.9c1.7-1.6 1.7-4.2.1-5.8z"></path></svg><svg viewBox="0 0 477.175 477.175" width="477.175" height="477.175" id="arrow-left" y="184"><path d="M145.188 238.575l215.5-215.5c5.3-5.3 5.3-13.8 0-19.1s-13.8-5.3-19.1 0l-225.1 225.1c-5.3 5.3-5.3 13.8 0 19.1l225.1 225c2.6 2.6 6.1 4 9.5 4s6.9-1.3 9.5-4c5.3-5.3 5.3-13.8 0-19.1l-215.4-215.5z"></path></svg><svg viewBox="0 0 477.175 477.175" width="477.175" height="477.175" id="arrow-right" y="662"><path d="M360.731 229.075l-225.1-225.1c-5.3-5.3-13.8-5.3-19.1 0s-5.3 13.8 0 19.1l215.5 215.5-215.5 215.5c-5.3 5.3-5.3 13.8 0 19.1 2.6 2.6 6.1 4 9.5 4 3.4 0 6.9-1.3 9.5-4l225.1-225.1c5.3-5.2 5.3-13.8.1-19z"></path></svg><svg width="64" height="64" viewBox="0 0 64 64" id="arrow-up" y="1140"><path d="M3.352 48.296l28.56-28.328 28.58 28.347c.397.394.917.59 1.436.59.52 0 1.04-.196 1.436-.59a2.003 2.003 0 0 0 0-2.849l-29.98-29.735c-.2-.2-.494-.375-.757-.475a2.052 2.052 0 0 0-2.166.456L.479 45.447a2.003 2.003 0 0 0 0 2.849 2.045 2.045 0 0 0 2.873 0z"></path></svg><svg width="82.205" height="58.497" viewBox="0 0 774 550" shape-rendering="geometricPrecision" text-rendering="geometricPrecision" image-rendering="optimizeQuality" fill-rule="evenodd" clip-rule="evenodd" id="cart" y="1204"><path class="fil0" d="M626 506l101-318c1-5 1-9-2-13s-7-7-12-7H60c-4 0-8 3-11 7s-3 8-2 13l101 318c2 5 7 9 13 9h452c6 0 11-4 13-9zM507 42l46 69c3 4 4 10 1 14-2 5-7 8-12 8H231c-5 0-10-3-12-8-3-4-3-10 0-14l47-69c2-4 7-6 11-6h218c5 0 9 2 12 6zm100 85L528 6c-3-4-7-6-12-6H258c-5 0-10 2-12 6l-80 121c-3 4-7 6-12 6H14c-8 0-14 6-14 14v19c0 2 0 3 1 5l122 370c2 6 7 9 13 9h501c7 0 12-3 14-9l122-370c0-2 1-3 1-5v-19c0-8-7-14-15-14H619c-5 0-9-2-12-6zm-60 153v116c0 8-7 14-14 14h-8c-7 0-14-6-14-14V280c0-8 7-14 14-14h8c7 0 14 6 14 14zm-142 0v116c0 8-7 14-15 14h-7c-8 0-14-6-14-14V280c0-8 6-14 14-14h7c8 0 15 6 15 14zm-143 0v116c0 8-6 14-14 14h-7c-8 0-14-6-14-14V280c0-8 6-14 14-14h7c8 0 14 6 14 14z"></path></svg><svg viewBox="0 0 26 26" width="26" height="26" id="checked" y="1263"><path d="M.3 14c-.2-.2-.3-.5-.3-.7s.1-.5.3-.7l1.4-1.4c.4-.4 1-.4 1.4 0l.1.1 5.5 5.9c.2.2.5.2.7 0L22.8 3.3h.1c.4-.4 1-.4 1.4 0l1.4 1.4c.4.4.4 1 0 1.4l-16 16.6c-.2.2-.4.3-.7.3-.3 0-.5-.1-.7-.3L.5 14.3.3 14z"></path></svg><svg width="54.422" height="54.422" viewBox="0 0 139 139" shape-rendering="geometricPrecision" text-rendering="geometricPrecision" image-rendering="optimizeQuality" fill-rule="evenodd" clip-rule="evenodd" id="close" y="1289"><path class="fil0" d="M7 0l63 63 62-63 7 7-63 63 63 62-7 7-62-63-63 63-7-7 63-62L0 7z"></path></svg><svg viewBox="0 0 512 512" width="512" height="512" id="credit-card" y="1344"><path d="M469.256 175.503h-52.1v-73.542c0-23.569-19.175-42.744-42.744-42.744H42.744C19.175 59.218 0 78.393 0 101.962v191.786c0 23.569 19.175 42.744 42.744 42.744h52.102v73.546c0 23.569 19.175 42.744 42.744 42.744h331.666c23.569 0 42.744-19.175 42.744-42.744V218.247c0-23.569-19.175-42.744-42.744-42.744zM24.425 101.962c0-10.101 8.218-18.319 18.319-18.319h331.668c10.101 0 18.319 8.218 18.319 18.319v17.051H24.425v-17.051zm70.421 116.285v93.819H42.744c-10.101 0-18.319-8.218-18.319-18.319v-93.743h74.52a42.471 42.471 0 0 0-4.099 18.243zm-70.421-42.668v-32.14h368.306v32.064H137.59c-.826 0-1.644.029-2.458.076H24.425zm444.831 252.778H137.59c-10.101 0-18.319-8.218-18.319-18.319V218.247c0-9.597 7.422-17.479 16.824-18.243H404.94c.451 0 .894-.028 1.331-.076h62.984c10.101 0 18.319 8.218 18.319 18.319v191.791h.001c0 10.101-8.218 18.319-18.319 18.319z"></path><path d="M340.211 255.272c-13.892 0-26.666 4.847-36.745 12.924-10.333-8.324-23.209-12.931-36.829-12.931-32.465 0-58.877 26.412-58.877 58.877s26.412 58.877 58.877 58.877c13.621 0 26.496-4.607 36.829-12.929 10.079 8.077 22.853 12.925 36.745 12.925 32.462 0 58.871-26.41 58.871-58.872s-26.409-58.871-58.871-58.871zm-52.258 85.929c-6.009 4.758-13.451 7.392-21.317 7.392-18.997.001-34.452-15.454-34.452-34.45 0-18.997 15.455-34.452 34.452-34.452 7.866 0 15.307 2.635 21.317 7.392a58.48 58.48 0 0 0-6.613 27.058 58.501 58.501 0 0 0 6.613 27.06zm52.258 7.388c-18.993 0-34.445-15.453-34.445-34.447 0-18.993 15.453-34.445 34.445-34.445 18.993 0 34.445 15.453 34.445 34.445 0 18.995-15.452 34.447-34.445 34.447z"></path></svg><svg width="60.79" height="70.13" viewBox="0 0 500 577" shape-rendering="geometricPrecision" text-rendering="geometricPrecision" image-rendering="optimizeQuality" fill-rule="evenodd" clip-rule="evenodd" id="fat" y="1856"><path class="fil0" d="M250 0c71 165 142 282 213 432l1 2 1 2 1 4 1 2c11 23 22 47 33 72-167 85-333 81-500 0L250 0zm-6 190c13 0 23 11 23 24s-10 24-23 24c-14 0-24-11-24-24s10-24 24-24zm-57 168c18 0 34 15 34 34 0 18-16 34-34 34-19 0-34-16-34-34 0-19 15-34 34-34zm122-64c13 0 24 10 24 23s-11 24-24 24-24-11-24-24 11-23 24-23zM71 440c120 56 241 58 361 1-27-57-56-113-85-169-34-66-67-132-98-199L71 440z"></path></svg><svg width="73.321" height="20.6" viewBox="0 0 679 721" shape-rendering="geometricPrecision" text-rendering="geometricPrecision" image-rendering="optimizeQuality" fill-rule="evenodd" clip-rule="evenodd" id="filter" y="1927"><path class="fil0" d="M0 88h168c0 5-1 11-1 17s1 12 1 18H0V88zm0 511h41c9-50 52-88 104-88s95 38 104 88h430v35H249c-9 50-52 87-104 87s-95-37-104-87H0v-35zm40 15zm0 2zm210-2zm0 2zm-105-70c39 0 70 32 70 70 0 39-31 70-70 70s-70-31-70-70c0-38 31-70 70-70zM0 343h420c9-49 52-87 104-87 58 0 105 47 105 105s-47 105-105 105c-52 0-95-38-104-88H0v-35zm524-52c39 0 70 31 70 70 0 38-31 70-70 70s-70-32-70-70c0-39 31-70 70-70zm104 52h51v35h-51c1-5 1-11 1-17s0-12-1-18zM272 0c52 0 95 38 104 88h303v35H376c-9 49-52 87-104 87-58 0-105-47-105-105S214 0 272 0zm0 35c39 0 70 31 70 70s-31 70-70 70-70-31-70-70 31-70 70-70z"></path></svg><svg viewBox="0 0 59 59" width="59" height="59" id="garbage" y="1948"><path d="M29.5 51a1 1 0 0 0 1-1V17a1 1 0 1 0-2 0v33a1 1 0 0 0 1 1zm-10 0a1 1 0 0 0 1-1V17a1 1 0 1 0-2 0v33a1 1 0 0 0 1 1zm20 0a1 1 0 0 0 1-1V17a1 1 0 1 0-2 0v33a1 1 0 0 0 1 1z"></path><path d="M52.5 6H38.456c-.11-1.25-.495-3.358-1.813-4.711C35.809.434 34.751 0 33.499 0H23.5c-1.252 0-2.31.434-3.144 1.289C19.038 2.642 18.653 4.75 18.543 6H6.5a1 1 0 1 0 0 2h2.041l1.915 46.021C10.493 55.743 11.565 59 15.364 59h28.272c3.799 0 4.871-3.257 4.907-4.958L50.459 8H52.5a1 1 0 1 0 0-2zM21.792 2.681C22.24 2.223 22.799 2 23.5 2h9.999c.701 0 1.26.223 1.708.681.805.823 1.128 2.271 1.24 3.319H20.553c.112-1.048.435-2.496 1.239-3.319zm24.752 51.298C46.538 54.288 46.4 57 43.636 57H15.364c-2.734 0-2.898-2.717-2.909-3.042L10.542 8h37.915l-1.913 45.979z"></path></svg><svg viewBox="0 0 486.196 486.196" width="486.196" height="486.196" id="house" y="2007"><path d="M481.708 220.456l-228.8-204.6c-.4-.4-.8-.7-1.3-1-5-4.8-13-5-18.3-.3l-228.8 204.6c-5.6 5-6 13.5-1.1 19.1 2.7 3 6.4 4.5 10.1 4.5 3.2 0 6.4-1.1 9-3.4l41.2-36.9v238.6c0 18.7 15.2 34 34 34h72.2c17.6 0 31.9-14.3 31.9-31.9v-121.3c0-2.7 2.2-4.9 4.9-4.9h72.9c2.7 0 4.9 2.2 4.9 4.9v121.3c0 17.6 14.3 31.9 31.9 31.9h72.2c19 0 34-18.7 34-42.6v-228.7l41.2 36.9c2.6 2.3 5.8 3.4 9 3.4 3.7 0 7.4-1.5 10.1-4.5 4.8-5.6 4.3-14.1-1.2-19.1zm-86.2 66.7v145.1c0 9.7-4.8 15.6-7 15.6h-72.2c-2.7 0-4.9-2.2-4.9-4.9v-121.1c0-17.6-14.3-31.9-31.9-31.9h-72.9c-17.6 0-31.9 14.3-31.9 31.9v121.3c0 2.7-2.2 4.9-4.9 4.9h-72.2c-3.8 0-7-3.1-7-7v-262.8l151.8-135.6 153.1 136.9v107.6z"></path></svg><svg viewBox="0 0 451 451" width="451" height="451" id="magnifying-glass" y="2494"><path d="M447.05 428l-109.6-109.6c29.4-33.8 47.2-77.9 47.2-126.1C384.65 86.2 298.35 0 192.35 0 86.25 0 .05 86.3.05 192.3s86.3 192.3 192.3 192.3c48.2 0 92.3-17.8 126.1-47.2L428.05 447c2.6 2.6 6.1 4 9.5 4s6.9-1.3 9.5-4c5.2-5.2 5.2-13.8 0-19zM26.95 192.3c0-91.2 74.2-165.3 165.3-165.3 91.2 0 165.3 74.2 165.3 165.3s-74.1 165.4-165.3 165.4c-91.1 0-165.3-74.2-165.3-165.4z"></path></svg><svg viewBox="0 0 483.3 483.3" width="483.3" height="483.3" id="mail" y="2945"><path d="M424.3 57.75H59.1c-32.6 0-59.1 26.5-59.1 59.1v249.6c0 32.6 26.5 59.1 59.1 59.1h365.1c32.6 0 59.1-26.5 59.1-59.1v-249.5c.1-32.6-26.4-59.2-59-59.2zm32.1 308.7c0 17.7-14.4 32.1-32.1 32.1H59.1c-17.7 0-32.1-14.4-32.1-32.1v-249.5c0-17.7 14.4-32.1 32.1-32.1h365.1c17.7 0 32.1 14.4 32.1 32.1v249.5h.1z"></path><path d="M304.8 238.55l118.2-106c5.5-5 6-13.5 1-19.1-5-5.5-13.5-6-19.1-1l-163 146.3-31.8-28.4c-.1-.1-.2-.2-.2-.3-.7-.7-1.4-1.3-2.2-1.9L78.3 112.35c-5.6-5-14.1-4.5-19.1 1.1-5 5.6-4.5 14.1 1.1 19.1l119.6 106.9-119.1 111.5c-5.4 5.1-5.7 13.6-.6 19.1 2.7 2.8 6.3 4.3 9.9 4.3 3.3 0 6.6-1.2 9.2-3.6l120.9-113.1 32.8 29.3c2.6 2.3 5.8 3.4 9 3.4s6.5-1.2 9-3.5l33.7-30.2 120.2 114.2c2.6 2.5 6 3.7 9.3 3.7 3.6 0 7.1-1.4 9.8-4.2 5.1-5.4 4.9-14-.5-19.1l-118.7-112.7z"></path></svg><svg width="54.455" height="79.047" viewBox="0 0 125 182" shape-rendering="geometricPrecision" text-rendering="geometricPrecision" image-rendering="optimizeQuality" fill-rule="evenodd" clip-rule="evenodd" id="map" y="3429"><path class="fil0" d="M122 45c0-2-2-5-3-7C108 10 82 0 62 0 34 0 4 18 0 56v13c3 18 17 37 27 55 12 20 24 39 36 58 7-13 14-25 21-37 2-4 4-8 6-11 2-2 4-4 5-7 12-21 30-42 30-63v-8c0-2-3-10-3-11zM62 84c-8 0-17-4-21-15-1-2-1-5-1-6v-5c0-14 12-20 23-20 13 0 23 10 23 23S75 84 62 84z"></path></svg><svg width="73.185" height="13" viewBox="0 0 1434 963" shape-rendering="geometricPrecision" text-rendering="geometricPrecision" image-rendering="optimizeQuality" fill-rule="evenodd" clip-rule="evenodd" id="menu" y="3509"><path class="fil0" d="M0 0h1434v74H0V0zm0 889h1434v74H0v-74zm0-445h1434v74H0v-74z"></path></svg><svg viewBox="0 0 42 42" width="42" height="42" id="minus" y="3522"><path d="M0 19h42v4H0z"></path></svg><svg width="70.846" height="70.746" viewBox="0 0 207 207" shape-rendering="geometricPrecision" text-rendering="geometricPrecision" image-rendering="optimizeQuality" fill-rule="evenodd" clip-rule="evenodd" id="phone" y="3564"><path class="fil0" d="M109 0c51 3 92 42 97 92h-11c-5-44-41-78-86-81V0zm37 128c1 2 0 3-1 4l-12 12c0 1-1 1-2 1-1 1-2 1-3 1h-7l-9-3c-4-2-8-4-13-7s-10-7-15-13c-4-4-8-8-11-12s-5-7-7-10c-1-4-2-7-3-9-1-3-2-5-2-7v-9c1-1 1-2 2-2l12-12c1-1 2-2 3-2s2 1 2 1l2 2 9 18c1 1 1 2 1 3 0 2-1 3-2 3l-4 5-1 1c1 1 1 3 2 4l3 6 7 7 7 7 6 3c1 1 2 1 3 1l1 1s0-1 1-1l5-5c1-1 3-2 4-2s2 1 3 1l17 10c1 1 2 2 2 3zm61-25c0 56-43 101-98 104v-11c49-3 87-43 87-93h11zM98 207c-55-3-98-48-98-104h11c0 50 39 90 87 93v11zM1 92C6 42 47 3 98 0v11c-45 3-81 37-86 81H1z"></path></svg><svg viewBox="0 0 42 42" width="42" height="42" id="plus" y="3635"><path d="M42 19H23V0h-4v19H0v4h19v19h4V23h19z"></path></svg><svg width="72.533" height="72.533" viewBox="0 0 337 337" shape-rendering="geometricPrecision" text-rendering="geometricPrecision" image-rendering="optimizeQuality" fill-rule="evenodd" clip-rule="evenodd" id="round-arrow-left" y="3677"><path class="fil0" d="M70 162l60-60c4-4 10-4 14 0 3 4 3 9 0 13l-44 44h160c5 0 9 4 9 10 0 5-4 9-9 9H100l44 44c3 4 3 10 0 13-2 2-5 3-7 3s-5-1-7-3l-60-60c-3-3-3-9 0-13zM169 0c93 0 168 75 168 169 0 93-75 168-168 168C75 337 0 262 0 169 0 75 75 0 169 0zm0 18c83 0 151 67 151 151 0 83-68 151-151 151-84 0-151-68-151-151C18 85 85 18 169 18z"></path></svg><svg width="60.79" height="70.13" viewBox="0 0 747683 862554" shape-rendering="geometricPrecision" text-rendering="geometricPrecision" image-rendering="optimizeQuality" fill-rule="evenodd" clip-rule="evenodd" id="thin" y="3750"><path class="fil0" d="M373844 0c124614 289105 249224 480589 373839 769694-249583 126785-498091 120793-747683 0L373844 0zm-9442 284512c19580 0 35455 15875 35455 35455s-15875 35454-35455 35454c-19579 0-35454-15874-35454-35454s15875-35455 35454-35455zm-85092 250554c28068 0 50823 22755 50823 50823s-22755 50823-50823 50823-50823-22755-50823-50823 22755-50823 50823-50823zm183187-95728c19580 0 35455 15875 35455 35454 0 19580-15875 35455-35455 35455s-35455-15875-35455-35455c0-19579 15875-35454 35455-35454zm-90378-329385L62602 747199c209168 89862 415793 93744 624445-4-51730-115917-109028-228097-167549-340946-50995-98331-101023-196147-147379-296296z"></path></svg><svg width="70.846" height="70.746" viewBox="0 0 298 298" shape-rendering="geometricPrecision" text-rendering="geometricPrecision" image-rendering="optimizeQuality" fill-rule="evenodd" clip-rule="evenodd" id="time" y="3821"><path class="fil0" d="M157 0c73 4 132 60 140 132h-16c-8-63-60-112-124-116V0zm-25 86h16v70h64v16h-80V86zm166 62v1c0 80-62 145-141 149v-16c70-4 125-62 125-133v-1h16zM141 298C62 294 0 229 0 149v-1h16v1c0 71 55 129 125 133v16zM1 132C9 60 68 4 141 0v16C77 20 25 69 17 132H1z"></path></svg></svg>